<svg class="thumb" width="1000" height="1000" viewBox="0,0,600,600" xmlns="http://www.w3.org/2000/svg" xmlns:inkscape="http://www.inkscape.org/namespaces/inkscape" xmlns:sodipodi="http://sodipodi.sourceforge.net/DTD/sodipodi-0.dtd" xmlns:xlink="http://www.w3.org/1999/xlink" xmlns:ns1="http://www.inkscape.org/namespaces/inkscape" xmlns:sketch="http://www.bohemiancoding.com/sketch/ns">
  <defs></defs>
  <g transform="matrix(1.7544,0,0,1.7544,-173.3549,-17.539)">
    <g transform="matrix(5.3864,0,0,5.4001,89.3719,0.0973)">
      <svg width="67" height="67" viewBox="6.5,6.5,67,67">
        <defs>
          <linearGradient x1="0" y1="0.5" x2="1" y2="0.5" id="linearGradientSkl2eqa3j4">
            <stop offset="0%" stop-color="#3a3a3a"></stop>
            <stop offset="100%" stop-color="#3a3a3a"></stop>
          </linearGradient>
        </defs>
        <g></g>
        <g></g>
        <g></g>
        <g></g>
        <g></g>
        <g></g>
        <g></g>
        <g>
          <path d="M40,68.5c-15.7,0-28.5-12.8-28.5-28.5S24.3,11.5,40,11.5S68.5,24.3,68.5,40S55.7,68.5,40,68.5z M40,13.5   c-14.6,0-26.5,11.9-26.5,26.5S25.4,66.5,40,66.5S66.5,54.6,66.5,40S54.6,13.5,40,13.5z" style="" stroke="none" fill="url('#linearGradientSkl2eqa3j4')"></path>
        </g>
      </svg>
    </g>
    <g transform="matrix(1.6831,0,0,1.6831,112.4424,23.468)">
      <svg width="187.0337218024264" height="186.77" viewBox="-5.131860901213205,-5,187.0337218024264,186.77">
        <defs>
          <linearGradient x1="0" y1="0.5" x2="1" y2="0.5" id="linearGradientSkl2eqa3ja">
            <stop offset="0%" stop-color="#000000"></stop>
            <stop offset="100%" stop-color="#000000"></stop>
          </linearGradient>
        </defs>
        <g></g>
        <g></g>
        <g></g>
        <g></g>
        <g></g>
        <g></g>
        <g></g>
        <g></g>
        <g></g>
        <g></g>
        <g></g>
        <g></g>
        <g>
          <circle cx="88.385" cy="88.385" r="88.385" stroke="none" fill="url('#linearGradientSkl2eqa3ja')" style=""></circle>
        </g>
      </svg>
    </g>
    <g transform="matrix(0.717,0,0,0.6226,201.1391,194.0188)">
      <svg width="186.742" height="16.667000502050996" viewBox="-5,80.05199949794901,186.742,16.667000502050996">
        <defs>
          <linearGradient x1="0" y1="0.5" x2="1" y2="0.5" id="linearGradientSkl2eqa3jg">
            <stop offset="0%" stop-color="#3a3a3a"></stop>
            <stop offset="100%" stop-color="#3a3a3a"></stop>
          </linearGradient>
        </defs>
        <g></g>
        <g></g>
        <g></g>
        <g></g>
        <g></g>
        <g></g>
        <g></g>
        <g></g>
        <g></g>
        <g></g>
        <g></g>
        <g></g>
        <g></g>
        <g></g>
        <g></g>
        <g>
          <path d="M176.742,88.385c0,1.841-1.492,3.334-3.334,3.334H3.334C1.493,91.719,0,90.225,0,88.385l0,0  c0-1.841,1.493-3.333,3.333-3.333h170.074C175.25,85.051,176.742,86.544,176.742,88.385L176.742,88.385z" style="" stroke="none" fill="url('#linearGradientSkl2eqa3jg')"></path>
        </g>
      </svg>
    </g>
    <g transform="matrix(2.6525,0,0,2.6525,160.0623,65.0554)">
      <svg width="82.289" height="55.672" viewBox="9.069999999999988,12.135000000000002,82.289,55.672">
        <defs>
          <linearGradient x1="0" y1="0.5" x2="1" y2="0.5" id="linearGradientSkl2eqa3jm">
            <stop offset="0%" stop-color="#3a3a3a"></stop>
            <stop offset="100%" stop-color="#3a3a3a"></stop>
          </linearGradient>
        </defs>
        <g></g>
        <g></g>
        <g></g>
        <g></g>
        <g></g>
        <g></g>
        <g></g>
        <g></g>
        <g></g>
        <g></g>
        <g></g>
        <g></g>
        <g></g>
        <g></g>
        <g></g>
        <g>
          <path d="M15.05,62.807h70.33c0.541,0,0.979-0.438,0.979-0.979V20.629c0-1.927-1.566-3.494-3.492-3.494l-65.304,0   c-1.926,0-3.493,1.567-3.493,3.494v41.198C14.07,62.368,14.509,62.807,15.05,62.807z M16.595,19.855h67.24v40.591h-67.24V19.855z" style="" stroke="none" fill="url('#linearGradientSkl2eqa3jm')"></path>
        </g>
      </svg>
    </g>
    <g transform="matrix(2.6525,0,0,2.6525,132.2107,191.5383)">
      <svg width="103.81932936312538" height="29.361000000000004" viewBox="-1.742514284949877,59.598,103.81932936312538,29.361000000000004">
        <defs>
          <linearGradient x1="0" y1="0.5" x2="1" y2="0.5" id="linearGradientSkl2eqa3js">
            <stop offset="0%" stop-color="#3a3a3a"></stop>
            <stop offset="100%" stop-color="#3a3a3a"></stop>
          </linearGradient>
        </defs>
        <g></g>
        <g></g>
        <g></g>
        <g></g>
        <g></g>
        <g></g>
        <g></g>
        <g></g>
        <g></g>
        <g></g>
        <g></g>
        <g></g>
        <g></g>
        <g></g>
        <g></g>
        <g>
          <path d="M97.074,78.246c-0.001-0.025-0.002-0.051-0.004-0.076c-0.024-0.321-0.134-0.641-0.322-0.949   c-0.029-0.049-0.062-0.095-0.101-0.137L86.078,65.071c-0.123-0.14-0.277-0.231-0.441-0.284c-0.053-0.111-0.163-0.189-0.294-0.189   H73.326c-0.123,0-0.235,0.07-0.291,0.181s-0.044,0.242,0.029,0.341l0.329,0.441H26.576l0.329-0.441   c0.073-0.099,0.085-0.23,0.03-0.341s-0.168-0.181-0.292-0.181H14.993c-0.131,0-0.242,0.078-0.294,0.19   c-0.165,0.052-0.319,0.144-0.441,0.283L3.688,77.084c-0.038,0.042-0.071,0.088-0.101,0.137c-0.243,0.398-0.354,0.822-0.325,1.232   L3.259,80.91c0.037,1.311,2.321,3.049,4.005,3.049h85.807c1.208,0,2.51-0.811,3.265-1.613c0.508-0.539,0.757-1.064,0.74-1.562   L97.074,78.246z M15.729,66.365c0.279-0.317,0.313-0.764,0.122-1.114h10.142l-0.328,0.44c-0.074,0.1-0.085,0.231-0.03,0.342   c0.056,0.11,0.168,0.18,0.292,0.18h48.117c0.124,0,0.236-0.069,0.293-0.18c0.055-0.11,0.043-0.242-0.031-0.342l-0.328-0.44h10.509   c-0.191,0.351-0.157,0.797,0.122,1.114l10.268,11.668c-0.057,0.064-0.088,0.15-0.08,0.241c0.014,0.149-0.034,0.28-0.146,0.401   c-0.267,0.29-0.856,0.464-1.578,0.464l-36.546,0.001h-0.001c-0.086,0-0.169,0.035-0.23,0.096c-0.062,0.062-0.096,0.145-0.096,0.23   c0,0.594-0.638,0.64-0.833,0.64H45.05c-0.195,0-0.833-0.046-0.833-0.64c0-0.086-0.034-0.169-0.096-0.23   c-0.061-0.061-0.144-0.096-0.23-0.096c0,0,0,0,0,0L7.264,79.14c-0.964,0-1.672-0.314-1.722-0.764   c-0.012-0.108-0.079-0.194-0.167-0.244L15.729,66.365z M93.071,82H7.264c-0.686,0-1.805-0.833-2.046-1.24l0.003-1.641   c0.396,0.42,1.116,0.674,2.044,0.674l36.338,0.001c0.146,0.589,0.69,0.966,1.447,0.966h10.315c0.757,0,1.302-0.377,1.447-0.966   l36.259-0.001c0.917,0,1.642-0.236,2.044-0.662l0.002,1.613C94.906,81.149,93.787,82,93.071,82z" style="" stroke="none" fill="url('#linearGradientSkl2eqa3js')"></path>
        </g>
      </svg>
    </g>
    <g transform="matrix(2.6525,0,0,2.6525,175.63,202.106)">
      <svg width="68.354" height="15.093999999999994" viewBox="15.809999999999999,63.756,68.354,15.093999999999994">
        <defs>
          <linearGradient x1="0" y1="0.5" x2="1" y2="0.5" id="linearGradientSkl2eqa3jy">
            <stop offset="0%" stop-color="#3a3a3a"></stop>
            <stop offset="100%" stop-color="#3a3a3a"></stop>
          </linearGradient>
        </defs>
        <g></g>
        <g></g>
        <g></g>
        <g></g>
        <g></g>
        <g></g>
        <g></g>
        <g></g>
        <g></g>
        <g></g>
        <g></g>
        <g></g>
        <g></g>
        <g></g>
        <g></g>
        <g>
          <polygon points="75.252,68.756 24.647,68.756 20.81,73.849 79.164,73.85  " style="" stroke="none" fill="url('#linearGradientSkl2eqa3jy')"></polygon>
        </g>
      </svg>
    </g>
    <g transform="matrix(0.1775,0,0,0.6226,252.3048,72.0188)">
      <svg width="186.742" height="16.667000502050996" viewBox="-5,80.05199949794901,186.742,16.667000502050996">
        <defs>
          <linearGradient x1="0" y1="0.5" x2="1" y2="0.5" id="linearGradientSkl2eqa3j14">
            <stop offset="0%" stop-color="#3a3a3a"></stop>
            <stop offset="100%" stop-color="#3a3a3a"></stop>
          </linearGradient>
        </defs>
        <g></g>
        <g></g>
        <g></g>
        <g></g>
        <g></g>
        <g></g>
        <g></g>
        <g></g>
        <g></g>
        <g></g>
        <g></g>
        <g></g>
        <g></g>
        <g></g>
        <g></g>
        <g>
          <path d="M176.742,88.385c0,1.841-1.492,3.334-3.334,3.334H3.334C1.493,91.719,0,90.225,0,88.385l0,0  c0-1.841,1.493-3.333,3.333-3.333h170.074C175.25,85.051,176.742,86.544,176.742,88.385L176.742,88.385z" style="" stroke="none" fill="url('#linearGradientSkl2eqa3j14')"></path>
        </g>
      </svg>
    </g>
    <g transform="matrix(0.9868,0,0,0.9868,186.1937,87.8844)">
      <svg width="183.5" height="203" style="overflow: visible;">
        <defs>
          <linearGradient x1="0.15" y1="0.15" x2="0.85" y2="0.85" id="linearGradientSkl2eqa3j1k">
            <stop offset="46.45%" stop-color="#650d88"></stop>
            <stop offset="100%" stop-color="#f70c6e"></stop>
          </linearGradient>
        </defs>
        <g transform="matrix(1,0,0,1,0,107.25)">
          <path d="M 11.6 13.8L 11.6 13.8L 5.6 13.8L 5.6 6.6L 9.7 6.6Q 14 6.6  14.9 3.3L 14.9 3.3L 15.9-0.8L 11-0.8L 0.8-48.8L 10-48.8L 17.4-7.9L 24.3-48.8L 33.4-48.8L 23.1 4.7Q 20.9 13.8  11.6 13.8ZM 56.8-44.9L 56.8-48.8L 65.8-48.8L 65.8 13.8L 56.8 13.8L 56.8-3.9Q 55.5 0  50.599999999999994 0L 50.599999999999994 0L 47 0Q 37.99999999999999 0  37.99999999999999-8.8L 37.99999999999999-8.8L 37.99999999999999-39.9Q 37.99999999999999-48.8  47-48.8L 47-48.8L 50.599999999999994-48.8Q 55.5-48.8  56.8-44.9L 56.8-44.9ZM 50-7.3L 50-7.3L 53.5-7.3Q 55.3-7.3  56.05-8.1Q 56.8-8.9  56.8-10.8L 56.8-10.8L 56.8-38Q 56.8-39.9  56.05-40.7Q 55.3-41.5  53.5-41.5L 53.5-41.5L 50-41.5Q 48.199999999999996-41.5  47.599999999999994-40.95Q 47-40.4  47-38.6L 47-38.6L 47-10.2Q 47-8.4  47.599999999999994-7.85Q 48.199999999999996-7.3  50-7.3ZM 89.79999999999998-48.8L 89.79999999999998-48.8L 93.29999999999998-48.8Q 102.39999999999999-48.8  102.39999999999999-39.9L 102.39999999999999-39.9L 102.39999999999999 0L 93.39999999999999 0L 93.39999999999999-38.6Q 93.39999999999999-40.4  92.79999999999998-40.95Q 92.19999999999999-41.5  90.39999999999999-41.5L 90.39999999999999-41.5L 86.89999999999999-41.5Q 85.1-41.5  84.35-40.7Q 83.6-39.9  83.6-38L 83.6-38L 83.6 0L 74.6 0L 74.6-48.8L 83.6-48.8L 83.6-44.9Q 84.89999999999999-48.8  89.79999999999998-48.8ZM 120.30000000000001-58.1L 110.90000000000002-58.1L 110.90000000000002-67L 120.30000000000001-67L 120.30000000000001-58.1ZM 120.10000000000002-48.8L 120.10000000000002 0L 111.10000000000002 0L 111.10000000000002-48.8L 120.10000000000002-48.8ZM 126.50000000000003-62.6L 142.80000000000004-62.6L 142.80000000000004 0L 133.70000000000002 0L 133.70000000000002-55.3L 126.50000000000003-55.3L 126.50000000000003-62.6ZM 159.90000000000003-52.4L 159.90000000000003-52.4L 159.90000000000003-43L 150.90000000000003-43L 150.90000000000003-53.8Q 150.90000000000003-62.6  160.20000000000002-62.6L 160.20000000000002-62.6L 169.40000000000003-62.6Q 178.80000000000004-62.6  178.80000000000004-53.8L 178.80000000000004-53.8L 178.80000000000004-38Q 178.80000000000004-32.7  174.80000000000004-31.8L 174.80000000000004-31.8Q 178.80000000000004-30.9  178.80000000000004-26L 178.80000000000004-26L 178.80000000000004-8.8Q 178.80000000000004 0  169.40000000000003 0L 169.40000000000003 0L 160.20000000000002 0Q 150.90000000000003 0  150.90000000000003-8.8L 150.90000000000003-8.8L 150.90000000000003-19.5L 159.90000000000003-19.5L 159.90000000000003-10.2Q 159.90000000000003-8.4  160.50000000000003-7.85Q 161.10000000000002-7.3  162.90000000000003-7.3L 162.90000000000003-7.3L 166.80000000000004-7.3Q 168.60000000000002-7.3  169.20000000000002-7.85Q 169.80000000000004-8.4  169.80000000000004-10.2L 169.80000000000004-10.2L 169.80000000000004-25.2Q 169.80000000000004-27  169.20000000000002-27.55Q 168.60000000000002-28.1  166.80000000000004-28.1L 166.80000000000004-28.1L 159.30000000000004-28.1L 159.30000000000004-35.3L 166.80000000000004-35.3Q 168.60000000000002-35.3  169.20000000000002-35.85Q 169.80000000000004-36.4  169.80000000000004-38.2L 169.80000000000004-38.2L 169.80000000000004-52.4Q 169.80000000000004-54.2  169.20000000000002-54.75Q 168.60000000000002-55.3  166.80000000000004-55.3L 166.80000000000004-55.3L 162.90000000000003-55.3Q 161.10000000000002-55.3  160.50000000000003-54.75Q 159.90000000000003-54.2  159.90000000000003-52.4Z" data-textpath="yqni13" data-text-anchor="middle" data-font-size="100" data-letterspacing="0" data-side="left" data-offset="0.5" data-dx="0" data-dy="0" data-xmlspace="preserve" data-href="" data-font="Teko" data-font-src="/Content/clientfonts/teko.woff" data-font-scale="contain" transform="translate(0,0)" data-x="0" data-y="0" fill="url('#linearGradientSkl2eqa3j1k')"></path>
        </g>
      </svg>
    </g>
    <g transform="matrix(0.1128,0,0,0.1305,185.2214,107.8017)">
      <svg width="1498.193359375" height="185" style="overflow: visible;">
        <defs>
          <linearGradient x1="0" y1="0.5" x2="1" y2="0.5" id="linearGradientSkl2eqa3j1n">
            <stop offset="0%" stop-color="#7e7e7e"></stop>
            <stop offset="100%" stop-color="#7e7e7e"></stop>
          </linearGradient>
        </defs>
        <g transform="matrix(1,0,0,1,0,93.75)">
          <path d="M 5.1300000000000034-24.32L 5.1300000000000034-59.57Q 5.1300000000000034-65.04  6.1300000000000034-69.02Q 7.1300000000000034-73  8.760000000000003-75.71Q 10.400000000000004-78.42  12.550000000000004-80.08Q 14.700000000000003-81.74  16.970000000000002-82.64Q 19.240000000000002-83.54  21.510000000000005-83.84Q 23.780000000000005-84.13  25.680000000000003-84.13L 25.680000000000003-84.13Q 27.490000000000002-84.13  29.710000000000004-83.86Q 31.930000000000003-83.59  34.2-82.74Q 36.47-81.88  38.60000000000001-80.25Q 40.72-78.61  42.36-75.88Q 43.99000000000001-73.14  45-69.14Q 46-65.14  46-59.57L 46-59.57L 46-24.32Q 46-18.85  45-14.87Q 43.99000000000001-10.89  42.33-8.11Q 40.67-5.32  38.53-3.59Q 36.38000000000001-1.86  34.13000000000001-0.9Q 31.880000000000003 0.05  29.660000000000004 0.39Q 27.440000000000005 0.73  25.680000000000003 0.73L 25.680000000000003 0.73Q 23.730000000000004 0.73  21.440000000000005 0.39Q 19.140000000000004 0.05  16.850000000000005-0.9Q 14.550000000000004-1.86  12.430000000000003-3.56Q 10.300000000000004-5.27  8.690000000000003-8.06Q 7.080000000000004-10.84  6.100000000000003-14.84Q 5.1300000000000034-18.85  5.1300000000000034-24.32L 5.1300000000000034-24.32ZM 18.070000000000004-64.16L 18.070000000000004-18.99Q 18.070000000000004-13.82  19.950000000000003-11.47Q 21.830000000000002-9.13  25.680000000000003-9.13L 25.680000000000003-9.13Q 29.440000000000005-9.13  31.300000000000004-11.47Q 33.150000000000006-13.82  33.150000000000006-18.99L 33.150000000000006-18.99L 33.150000000000006-64.16Q 33.150000000000006-69.63  31.300000000000004-72.12Q 29.440000000000005-74.61  25.680000000000003-74.61L 25.680000000000003-74.61Q 21.830000000000002-74.61  19.950000000000003-72.12Q 18.070000000000004-69.63  18.070000000000004-64.16L 18.070000000000004-64.16ZM 58.54304687499996 0L 58.54304687499996-9.52L 68.21304687499996-9.52L 68.21304687499996-66.41L 57.86304687499996-57.28L 52.39304687499996-63.67L 71.33304687499995-83.4L 80.76304687499996-83.4L 80.71304687499996-83.3L 80.76304687499996-83.35L 80.76304687499996-9.52L 90.38304687499996-9.52L 90.38304687499996 0L 58.54304687499996 0ZM 99.07039062499993 0L 99.07039062499993-9.52L 108.74039062499993-9.52L 108.74039062499993-66.41L 98.39039062499992-57.28L 92.92039062499992-63.67L 111.86039062499992-83.4L 121.29039062499993-83.4L 121.24039062499993-83.3L 121.29039062499993-83.35L 121.29039062499993-9.52L 130.91039062499993-9.52L 130.91039062499993 0L 99.07039062499993 0ZM 139.5977343749999 0L 139.5977343749999-9.52L 149.26773437499992-9.52L 149.26773437499992-66.41L 138.91773437499992-57.28L 133.44773437499992-63.67L 152.38773437499992-83.4L 161.81773437499993-83.4L 161.76773437499992-83.3L 161.81773437499993-83.35L 161.81773437499993-9.52L 171.4377343749999-9.52L 171.4377343749999 0L 139.5977343749999 0ZM 177.83507812499988-24.32L 177.83507812499988-59.57Q 177.83507812499988-65.04  178.83507812499988-69.02Q 179.83507812499988-73  181.46507812499988-75.71Q 183.1050781249999-78.42  185.2550781249999-80.08Q 187.40507812499987-81.74  189.67507812499989-82.64Q 191.9450781249999-83.54  194.21507812499988-83.84Q 196.4850781249999-84.13  198.3850781249999-84.13L 198.3850781249999-84.13Q 200.1950781249999-84.13  202.4150781249999-83.86Q 204.6350781249999-83.59  206.90507812499987-82.74Q 209.17507812499989-81.88  211.30507812499988-80.25Q 213.42507812499989-78.61  215.0650781249999-75.88Q 216.6950781249999-73.14  217.7050781249999-69.14Q 218.7050781249999-65.14  218.7050781249999-59.57L 218.7050781249999-59.57L 218.7050781249999-24.32Q 218.7050781249999-18.85  217.7050781249999-14.87Q 216.6950781249999-10.89  215.03507812499987-8.11Q 213.3750781249999-5.32  211.2350781249999-3.59Q 209.08507812499988-1.86  206.83507812499988-0.9Q 204.58507812499988 0.05  202.36507812499988 0.39Q 200.14507812499988 0.73  198.3850781249999 0.73L 198.3850781249999 0.73Q 196.43507812499988 0.73  194.14507812499988 0.39Q 191.84507812499987 0.05  189.55507812499988-0.9Q 187.2550781249999-1.86  185.1350781249999-3.56Q 183.0050781249999-5.27  181.39507812499988-8.06Q 179.7850781249999-10.84  178.80507812499988-14.84Q 177.83507812499988-18.85  177.83507812499988-24.32L 177.83507812499988-24.32ZM 190.77507812499988-64.16L 190.77507812499988-18.99Q 190.77507812499988-13.82  192.65507812499987-11.47Q 194.53507812499987-9.13  198.3850781249999-9.13L 198.3850781249999-9.13Q 202.14507812499988-9.13  204.0050781249999-11.47Q 205.8550781249999-13.82  205.8550781249999-18.99L 205.8550781249999-18.99L 205.8550781249999-64.16Q 205.8550781249999-69.63  204.0050781249999-72.12Q 202.14507812499988-74.61  198.3850781249999-74.61L 198.3850781249999-74.61Q 194.53507812499987-74.61  192.65507812499987-72.12Q 190.77507812499988-69.63  190.77507812499988-64.16L 190.77507812499988-64.16ZM 228.95812499999982-24.32L 228.95812499999982-59.57Q 228.95812499999982-65.04  229.95812499999982-69.02Q 230.95812499999982-73  232.58812499999982-75.71Q 234.22812499999984-78.42  236.37812499999984-80.08Q 238.52812499999982-81.74  240.79812499999983-82.64Q 243.06812499999984-83.54  245.33812499999982-83.84Q 247.60812499999983-84.13  249.50812499999984-84.13L 249.50812499999984-84.13Q 251.31812499999984-84.13  253.53812499999984-83.86Q 255.75812499999984-83.59  258.0281249999998-82.74Q 260.2981249999998-81.88  262.42812499999985-80.25Q 264.5481249999998-78.61  266.18812499999984-75.88Q 267.81812499999984-73.14  268.82812499999983-69.14Q 269.82812499999983-65.14  269.82812499999983-59.57L 269.82812499999983-59.57L 269.82812499999983-24.32Q 269.82812499999983-18.85  268.82812499999983-14.87Q 267.81812499999984-10.89  266.1581249999998-8.11Q 264.49812499999985-5.32  262.35812499999986-3.59Q 260.2081249999998-1.86  257.9581249999998-0.9Q 255.70812499999982 0.05  253.48812499999983 0.39Q 251.26812499999983 0.73  249.50812499999984 0.73L 249.50812499999984 0.73Q 247.55812499999982 0.73  245.26812499999983 0.39Q 242.96812499999982 0.05  240.67812499999982-0.9Q 238.37812499999984-1.86  236.25812499999984-3.56Q 234.12812499999984-5.27  232.51812499999983-8.06Q 230.90812499999984-10.84  229.92812499999982-14.84Q 228.95812499999982-18.85  228.95812499999982-24.32L 228.95812499999982-24.32ZM 241.89812499999982-64.16L 241.89812499999982-18.99Q 241.89812499999982-13.82  243.77812499999982-11.47Q 245.6581249999998-9.13  249.50812499999984-9.13L 249.50812499999984-9.13Q 253.26812499999983-9.13  255.12812499999984-11.47Q 256.9781249999998-13.82  256.9781249999998-18.99L 256.9781249999998-18.99L 256.9781249999998-64.16Q 256.9781249999998-69.63  255.12812499999984-72.12Q 253.26812499999983-74.61  249.50812499999984-74.61L 249.50812499999984-74.61Q 245.6581249999998-74.61  243.77812499999982-72.12Q 241.89812499999982-69.63  241.89812499999982-64.16L 241.89812499999982-64.16ZM 282.37117187499985 0L 282.37117187499985-9.52L 292.0411718749998-9.52L 292.0411718749998-66.41L 281.69117187499984-57.28L 276.2211718749998-63.67L 295.1611718749998-83.4L 304.5911718749998-83.4L 304.5411718749998-83.3L 304.5911718749998-83.35L 304.5911718749998-9.52L 314.2111718749998-9.52L 314.2111718749998 0L 282.37117187499985 0ZM 322.8985156249998 0L 322.8985156249998-9.52L 332.56851562499975-9.52L 332.56851562499975-66.41L 322.2185156249998-57.28L 316.74851562499975-63.67L 335.68851562499975-83.4L 345.11851562499976-83.4L 345.06851562499975-83.3L 345.11851562499976-83.35L 345.11851562499976-9.52L 354.73851562499976-9.52L 354.73851562499976 0L 322.8985156249998 0ZM 361.13585937499977-24.32L 361.13585937499977-59.57Q 361.13585937499977-65.04  362.13585937499977-69.02Q 363.13585937499977-73  364.76585937499976-75.71Q 366.40585937499975-78.42  368.5558593749998-80.08Q 370.70585937499976-81.74  372.9758593749998-82.64Q 375.2458593749998-83.54  377.51585937499976-83.84Q 379.78585937499975-84.13  381.6858593749998-84.13L 381.6858593749998-84.13Q 383.4958593749998-84.13  385.71585937499975-83.86Q 387.9358593749998-83.59  390.20585937499976-82.74Q 392.4758593749998-81.88  394.6058593749998-80.25Q 396.7258593749998-78.61  398.3658593749998-75.88Q 399.9958593749998-73.14  401.0058593749998-69.14Q 402.0058593749998-65.14  402.0058593749998-59.57L 402.0058593749998-59.57L 402.0058593749998-24.32Q 402.0058593749998-18.85  401.0058593749998-14.87Q 399.9958593749998-10.89  398.33585937499976-8.11Q 396.6758593749998-5.32  394.53585937499975-3.59Q 392.38585937499977-1.86  390.13585937499977-0.9Q 387.88585937499977 0.05  385.6658593749998 0.39Q 383.44585937499977 0.73  381.6858593749998 0.73L 381.6858593749998 0.73Q 379.7358593749998 0.73  377.44585937499977 0.39Q 375.14585937499976 0.05  372.8558593749998-0.9Q 370.5558593749998-1.86  368.4358593749998-3.56Q 366.3058593749998-5.27  364.69585937499977-8.06Q 363.08585937499976-10.84  362.1058593749998-14.84Q 361.13585937499977-18.85  361.13585937499977-24.32L 361.13585937499977-24.32ZM 374.07585937499977-64.16L 374.07585937499977-18.99Q 374.07585937499977-13.82  375.95585937499976-11.47Q 377.83585937499976-9.13  381.6858593749998-9.13L 381.6858593749998-9.13Q 385.44585937499977-9.13  387.3058593749998-11.47Q 389.15585937499975-13.82  389.15585937499975-18.99L 389.15585937499975-18.99L 389.15585937499975-64.16Q 389.15585937499975-69.63  387.3058593749998-72.12Q 385.44585937499977-74.61  381.6858593749998-74.61L 381.6858593749998-74.61Q 377.83585937499976-74.61  375.95585937499976-72.12Q 374.07585937499977-69.63  374.07585937499977-64.16L 374.07585937499977-64.16ZM 414.54890624999973 0L 414.54890624999973-9.52L 424.2189062499997-9.52L 424.2189062499997-66.41L 413.8689062499997-57.28L 408.3989062499997-63.67L 427.3389062499997-83.4L 436.7689062499997-83.4L 436.7189062499997-83.3L 436.7689062499997-83.35L 436.7689062499997-9.52L 446.3889062499997-9.52L 446.3889062499997 0L 414.54890624999973 0ZM 452.7862499999997-24.32L 452.7862499999997-59.57Q 452.7862499999997-65.04  453.7862499999997-69.02Q 454.7862499999997-73  456.4162499999997-75.71Q 458.0562499999997-78.42  460.2062499999997-80.08Q 462.3562499999997-81.74  464.6262499999997-82.64Q 466.8962499999997-83.54  469.1662499999997-83.84Q 471.43624999999975-84.13  473.3362499999997-84.13L 473.3362499999997-84.13Q 475.1462499999997-84.13  477.3662499999997-83.86Q 479.5862499999997-83.59  481.8562499999997-82.74Q 484.1262499999997-81.88  486.25624999999974-80.25Q 488.3762499999997-78.61  490.01624999999973-75.88Q 491.6462499999997-73.14  492.6562499999997-69.14Q 493.6562499999997-65.14  493.6562499999997-59.57L 493.6562499999997-59.57L 493.6562499999997-24.32Q 493.6562499999997-18.85  492.6562499999997-14.87Q 491.6462499999997-10.89  489.9862499999997-8.11Q 488.32624999999973-5.32  486.18624999999975-3.59Q 484.0362499999997-1.86  481.7862499999997-0.9Q 479.5362499999997 0.05  477.31624999999974 0.39Q 475.0962499999997 0.73  473.3362499999997 0.73L 473.3362499999997 0.73Q 471.38624999999973 0.73  469.0962499999997 0.39Q 466.7962499999997 0.05  464.50624999999974-0.9Q 462.2062499999997-1.86  460.0862499999997-3.56Q 457.9562499999997-5.27  456.3462499999997-8.06Q 454.7362499999997-10.84  453.75624999999974-14.84Q 452.7862499999997-18.85  452.7862499999997-24.32L 452.7862499999997-24.32ZM 465.7262499999997-64.16L 465.7262499999997-18.99Q 465.7262499999997-13.82  467.6062499999997-11.47Q 469.4862499999997-9.13  473.3362499999997-9.13L 473.3362499999997-9.13Q 477.0962499999997-9.13  478.9562499999997-11.47Q 480.8062499999997-13.82  480.8062499999997-18.99L 480.8062499999997-18.99L 480.8062499999997-64.16Q 480.8062499999997-69.63  478.9562499999997-72.12Q 477.0962499999997-74.61  473.3362499999997-74.61L 473.3362499999997-74.61Q 469.4862499999997-74.61  467.6062499999997-72.12Q 465.7262499999997-69.63  465.7262499999997-64.16L 465.7262499999997-64.16ZM 503.90929687499965-24.32L 503.90929687499965-59.57Q 503.90929687499965-65.04  504.90929687499965-69.02Q 505.90929687499965-73  507.53929687499965-75.71Q 509.17929687499964-78.42  511.32929687499967-80.08Q 513.4792968749997-81.74  515.7492968749997-82.64Q 518.0192968749997-83.54  520.2892968749996-83.84Q 522.5592968749996-84.13  524.4592968749996-84.13L 524.4592968749996-84.13Q 526.2692968749997-84.13  528.4892968749997-83.86Q 530.7092968749996-83.59  532.9792968749997-82.74Q 535.2492968749997-81.88  537.3792968749997-80.25Q 539.4992968749997-78.61  541.1392968749997-75.88Q 542.7692968749997-73.14  543.7792968749997-69.14Q 544.7792968749997-65.14  544.7792968749997-59.57L 544.7792968749997-59.57L 544.7792968749997-24.32Q 544.7792968749997-18.85  543.7792968749997-14.87Q 542.7692968749997-10.89  541.1092968749997-8.11Q 539.4492968749996-5.32  537.3092968749996-3.59Q 535.1592968749997-1.86  532.9092968749997-0.9Q 530.6592968749997 0.05  528.4392968749996 0.39Q 526.2192968749997 0.73  524.4592968749996 0.73L 524.4592968749996 0.73Q 522.5092968749997 0.73  520.2192968749997 0.39Q 517.9192968749996 0.05  515.6292968749997-0.9Q 513.3292968749996-1.86  511.20929687499967-3.56Q 509.07929687499967-5.27  507.46929687499966-8.06Q 505.85929687499964-10.84  504.8792968749997-14.84Q 503.90929687499965-18.85  503.90929687499965-24.32L 503.90929687499965-24.32ZM 516.8492968749997-64.16L 516.8492968749997-18.99Q 516.8492968749997-13.82  518.7292968749997-11.47Q 520.6092968749997-9.13  524.4592968749996-9.13L 524.4592968749996-9.13Q 528.2192968749997-9.13  530.0792968749996-11.47Q 531.9292968749996-13.82  531.9292968749996-18.99L 531.9292968749996-18.99L 531.9292968749996-64.16Q 531.9292968749996-69.63  530.0792968749996-72.12Q 528.2192968749997-74.61  524.4592968749996-74.61L 524.4592968749996-74.61Q 520.6092968749997-74.61  518.7292968749997-72.12Q 516.8492968749997-69.63  516.8492968749997-64.16L 516.8492968749997-64.16ZM 555.0323437499997-24.32L 555.0323437499997-59.57Q 555.0323437499997-65.04  556.0323437499997-69.02Q 557.0323437499997-73  558.6623437499996-75.71Q 560.3023437499996-78.42  562.4523437499996-80.08Q 564.6023437499997-81.74  566.8723437499997-82.64Q 569.1423437499997-83.54  571.4123437499996-83.84Q 573.6823437499996-84.13  575.5823437499996-84.13L 575.5823437499996-84.13Q 577.3923437499997-84.13  579.6123437499997-83.86Q 581.8323437499996-83.59  584.1023437499997-82.74Q 586.3723437499997-81.88  588.5023437499997-80.25Q 590.6223437499997-78.61  592.2623437499997-75.88Q 593.8923437499997-73.14  594.9023437499997-69.14Q 595.9023437499997-65.14  595.9023437499997-59.57L 595.9023437499997-59.57L 595.9023437499997-24.32Q 595.9023437499997-18.85  594.9023437499997-14.87Q 593.8923437499997-10.89  592.2323437499997-8.11Q 590.5723437499996-5.32  588.4323437499996-3.59Q 586.2823437499997-1.86  584.0323437499997-0.9Q 581.7823437499997 0.05  579.5623437499996 0.39Q 577.3423437499997 0.73  575.5823437499996 0.73L 575.5823437499996 0.73Q 573.6323437499997 0.73  571.3423437499997 0.39Q 569.0423437499996 0.05  566.7523437499997-0.9Q 564.4523437499996-1.86  562.3323437499996-3.56Q 560.2023437499996-5.27  558.5923437499997-8.06Q 556.9823437499997-10.84  556.0023437499997-14.84Q 555.0323437499997-18.85  555.0323437499997-24.32L 555.0323437499997-24.32ZM 567.9723437499997-64.16L 567.9723437499997-18.99Q 567.9723437499997-13.82  569.8523437499997-11.47Q 571.7323437499997-9.13  575.5823437499996-9.13L 575.5823437499996-9.13Q 579.3423437499997-9.13  581.2023437499996-11.47Q 583.0523437499996-13.82  583.0523437499996-18.99L 583.0523437499996-18.99L 583.0523437499996-64.16Q 583.0523437499996-69.63  581.2023437499996-72.12Q 579.3423437499997-74.61  575.5823437499996-74.61L 575.5823437499996-74.61Q 571.7323437499997-74.61  569.8523437499997-72.12Q 567.9723437499997-69.63  567.9723437499997-64.16L 567.9723437499997-64.16ZM 608.4453906249995 0L 608.4453906249995-9.52L 618.1153906249996-9.52L 618.1153906249996-66.41L 607.7653906249996-57.28L 602.2953906249995-63.67L 621.2353906249996-83.4L 630.6653906249995-83.4L 630.6153906249996-83.3L 630.6653906249995-83.35L 630.6653906249995-9.52L 640.2853906249995-9.52L 640.2853906249995 0L 608.4453906249995 0ZM 646.6827343749995-24.32L 646.6827343749995-59.57Q 646.6827343749995-65.04  647.6827343749995-69.02Q 648.6827343749995-73  650.3127343749995-75.71Q 651.9527343749995-78.42  654.1027343749995-80.08Q 656.2527343749996-81.74  658.5227343749996-82.64Q 660.7927343749996-83.54  663.0627343749995-83.84Q 665.3327343749995-84.13  667.2327343749995-84.13L 667.2327343749995-84.13Q 669.0427343749996-84.13  671.2627343749996-83.86Q 673.4827343749995-83.59  675.7527343749996-82.74Q 678.0227343749996-81.88  680.1527343749996-80.25Q 682.2727343749996-78.61  683.9127343749996-75.88Q 685.5427343749996-73.14  686.5527343749995-69.14Q 687.5527343749995-65.14  687.5527343749995-59.57L 687.5527343749995-59.57L 687.5527343749995-24.32Q 687.5527343749995-18.85  686.5527343749995-14.87Q 685.5427343749996-10.89  683.8827343749996-8.11Q 682.2227343749995-5.32  680.0827343749995-3.59Q 677.9327343749995-1.86  675.6827343749995-0.9Q 673.4327343749995 0.05  671.2127343749995 0.39Q 668.9927343749996 0.73  667.2327343749995 0.73L 667.2327343749995 0.73Q 665.2827343749996 0.73  662.9927343749996 0.39Q 660.6927343749995 0.05  658.4027343749996-0.9Q 656.1027343749995-1.86  653.9827343749995-3.56Q 651.8527343749995-5.27  650.2427343749996-8.06Q 648.6327343749996-10.84  647.6527343749996-14.84Q 646.6827343749995-18.85  646.6827343749995-24.32L 646.6827343749995-24.32ZM 659.6227343749996-64.16L 659.6227343749996-18.99Q 659.6227343749996-13.82  661.5027343749996-11.47Q 663.3827343749996-9.13  667.2327343749995-9.13L 667.2327343749995-9.13Q 670.9927343749996-9.13  672.8527343749995-11.47Q 674.7027343749995-13.82  674.7027343749995-18.99L 674.7027343749995-18.99L 674.7027343749995-64.16Q 674.7027343749995-69.63  672.8527343749995-72.12Q 670.9927343749996-74.61  667.2327343749995-74.61L 667.2327343749995-74.61Q 663.3827343749996-74.61  661.5027343749996-72.12Q 659.6227343749996-69.63  659.6227343749996-64.16L 659.6227343749996-64.16ZM 697.8057812499995-24.32L 697.8057812499995-59.57Q 697.8057812499995-65.04  698.8057812499995-69.02Q 699.8057812499995-73  701.4357812499995-75.71Q 703.0757812499995-78.42  705.2257812499995-80.08Q 707.3757812499996-81.74  709.6457812499996-82.64Q 711.9157812499996-83.54  714.1857812499995-83.84Q 716.4557812499995-84.13  718.3557812499995-84.13L 718.3557812499995-84.13Q 720.1657812499996-84.13  722.3857812499996-83.86Q 724.6057812499995-83.59  726.8757812499996-82.74Q 729.1457812499996-81.88  731.2757812499996-80.25Q 733.3957812499996-78.61  735.0357812499996-75.88Q 736.6657812499996-73.14  737.6757812499995-69.14Q 738.6757812499995-65.14  738.6757812499995-59.57L 738.6757812499995-59.57L 738.6757812499995-24.32Q 738.6757812499995-18.85  737.6757812499995-14.87Q 736.6657812499996-10.89  735.0057812499996-8.11Q 733.3457812499995-5.32  731.2057812499995-3.59Q 729.0557812499995-1.86  726.8057812499995-0.9Q 724.5557812499995 0.05  722.3357812499995 0.39Q 720.1157812499996 0.73  718.3557812499995 0.73L 718.3557812499995 0.73Q 716.4057812499996 0.73  714.1157812499996 0.39Q 711.8157812499995 0.05  709.5257812499996-0.9Q 707.2257812499995-1.86  705.1057812499995-3.56Q 702.9757812499995-5.27  701.3657812499996-8.06Q 699.7557812499996-10.84  698.7757812499996-14.84Q 697.8057812499995-18.85  697.8057812499995-24.32L 697.8057812499995-24.32ZM 710.7457812499996-64.16L 710.7457812499996-18.99Q 710.7457812499996-13.82  712.6257812499996-11.47Q 714.5057812499996-9.13  718.3557812499995-9.13L 718.3557812499995-9.13Q 722.1157812499996-9.13  723.9757812499995-11.47Q 725.8257812499995-13.82  725.8257812499995-18.99L 725.8257812499995-18.99L 725.8257812499995-64.16Q 725.8257812499995-69.63  723.9757812499995-72.12Q 722.1157812499996-74.61  718.3557812499995-74.61L 718.3557812499995-74.61Q 714.5057812499996-74.61  712.6257812499996-72.12Q 710.7457812499996-69.63  710.7457812499996-64.16L 710.7457812499996-64.16ZM 748.9288281249995-24.32L 748.9288281249995-59.57Q 748.9288281249995-65.04  749.9288281249995-69.02Q 750.9288281249995-73  752.5588281249995-75.71Q 754.1988281249995-78.42  756.3488281249995-80.08Q 758.4988281249996-81.74  760.7688281249996-82.64Q 763.0388281249996-83.54  765.3088281249995-83.84Q 767.5788281249995-84.13  769.4788281249995-84.13L 769.4788281249995-84.13Q 771.2888281249996-84.13  773.5088281249996-83.86Q 775.7288281249995-83.59  777.9988281249996-82.74Q 780.2688281249996-81.88  782.3988281249996-80.25Q 784.5188281249996-78.61  786.1588281249996-75.88Q 787.7888281249996-73.14  788.7988281249995-69.14Q 789.7988281249995-65.14  789.7988281249995-59.57L 789.7988281249995-59.57L 789.7988281249995-24.32Q 789.7988281249995-18.85  788.7988281249995-14.87Q 787.7888281249996-10.89  786.1288281249996-8.11Q 784.4688281249995-5.32  782.3288281249995-3.59Q 780.1788281249995-1.86  777.9288281249995-0.9Q 775.6788281249995 0.05  773.4588281249995 0.39Q 771.2388281249996 0.73  769.4788281249995 0.73L 769.4788281249995 0.73Q 767.5288281249996 0.73  765.2388281249996 0.39Q 762.9388281249995 0.05  760.6488281249996-0.9Q 758.3488281249995-1.86  756.2288281249995-3.56Q 754.0988281249995-5.27  752.4888281249996-8.06Q 750.8788281249996-10.84  749.8988281249996-14.84Q 748.9288281249995-18.85  748.9288281249995-24.32L 748.9288281249995-24.32ZM 761.8688281249996-64.16L 761.8688281249996-18.99Q 761.8688281249996-13.82  763.7488281249996-11.47Q 765.6288281249996-9.13  769.4788281249995-9.13L 769.4788281249995-9.13Q 773.2388281249996-9.13  775.0988281249995-11.47Q 776.9488281249995-13.82  776.9488281249995-18.99L 776.9488281249995-18.99L 776.9488281249995-64.16Q 776.9488281249995-69.63  775.0988281249995-72.12Q 773.2388281249996-74.61  769.4788281249995-74.61L 769.4788281249995-74.61Q 765.6288281249996-74.61  763.7488281249996-72.12Q 761.8688281249996-69.63  761.8688281249996-64.16L 761.8688281249996-64.16ZM 802.3418749999994 0L 802.3418749999994-9.52L 812.0118749999995-9.52L 812.0118749999995-66.41L 801.6618749999994-57.28L 796.1918749999994-63.67L 815.1318749999995-83.4L 824.5618749999994-83.4L 824.5118749999995-83.3L 824.5618749999994-83.35L 824.5618749999994-9.52L 834.1818749999994-9.52L 834.1818749999994 0L 802.3418749999994 0ZM 840.5792187499994-24.32L 840.5792187499994-59.57Q 840.5792187499994-65.04  841.5792187499994-69.02Q 842.5792187499994-73  844.2092187499994-75.71Q 845.8492187499994-78.42  847.9992187499994-80.08Q 850.1492187499995-81.74  852.4192187499995-82.64Q 854.6892187499994-83.54  856.9592187499994-83.84Q 859.2292187499994-84.13  861.1292187499994-84.13L 861.1292187499994-84.13Q 862.9392187499994-84.13  865.1592187499995-83.86Q 867.3792187499994-83.59  869.6492187499995-82.74Q 871.9192187499995-81.88  874.0492187499995-80.25Q 876.1692187499995-78.61  877.8092187499994-75.88Q 879.4392187499994-73.14  880.4492187499994-69.14Q 881.4492187499994-65.14  881.4492187499994-59.57L 881.4492187499994-59.57L 881.4492187499994-24.32Q 881.4492187499994-18.85  880.4492187499994-14.87Q 879.4392187499994-10.89  877.7792187499995-8.11Q 876.1192187499994-5.32  873.9792187499994-3.59Q 871.8292187499994-1.86  869.5792187499994-0.9Q 867.3292187499994 0.05  865.1092187499994 0.39Q 862.8892187499995 0.73  861.1292187499994 0.73L 861.1292187499994 0.73Q 859.1792187499994 0.73  856.8892187499995 0.39Q 854.5892187499994 0.05  852.2992187499995-0.9Q 849.9992187499994-1.86  847.8792187499994-3.56Q 845.7492187499994-5.27  844.1392187499995-8.06Q 842.5292187499995-10.84  841.5492187499995-14.84Q 840.5792187499994-18.85  840.5792187499994-24.32L 840.5792187499994-24.32ZM 853.5192187499995-64.16L 853.5192187499995-18.99Q 853.5192187499995-13.82  855.3992187499995-11.47Q 857.2792187499995-9.13  861.1292187499994-9.13L 861.1292187499994-9.13Q 864.8892187499995-9.13  866.7492187499994-11.47Q 868.5992187499994-13.82  868.5992187499994-18.99L 868.5992187499994-18.99L 868.5992187499994-64.16Q 868.5992187499994-69.63  866.7492187499994-72.12Q 864.8892187499995-74.61  861.1292187499994-74.61L 861.1292187499994-74.61Q 857.2792187499995-74.61  855.3992187499995-72.12Q 853.5192187499995-69.63  853.5192187499995-64.16L 853.5192187499995-64.16ZM 891.7022656249994-24.32L 891.7022656249994-59.57Q 891.7022656249994-65.04  892.7022656249994-69.02Q 893.7022656249994-73  895.3322656249994-75.71Q 896.9722656249994-78.42  899.1222656249994-80.08Q 901.2722656249995-81.74  903.5422656249995-82.64Q 905.8122656249994-83.54  908.0822656249994-83.84Q 910.3522656249994-84.13  912.2522656249994-84.13L 912.2522656249994-84.13Q 914.0622656249994-84.13  916.2822656249995-83.86Q 918.5022656249994-83.59  920.7722656249995-82.74Q 923.0422656249995-81.88  925.1722656249995-80.25Q 927.2922656249995-78.61  928.9322656249994-75.88Q 930.5622656249994-73.14  931.5722656249994-69.14Q 932.5722656249994-65.14  932.5722656249994-59.57L 932.5722656249994-59.57L 932.5722656249994-24.32Q 932.5722656249994-18.85  931.5722656249994-14.87Q 930.5622656249994-10.89  928.9022656249995-8.11Q 927.2422656249994-5.32  925.1022656249994-3.59Q 922.9522656249994-1.86  920.7022656249994-0.9Q 918.4522656249994 0.05  916.2322656249994 0.39Q 914.0122656249995 0.73  912.2522656249994 0.73L 912.2522656249994 0.73Q 910.3022656249994 0.73  908.0122656249995 0.39Q 905.7122656249994 0.05  903.4222656249995-0.9Q 901.1222656249994-1.86  899.0022656249994-3.56Q 896.8722656249994-5.27  895.2622656249995-8.06Q 893.6522656249995-10.84  892.6722656249995-14.84Q 891.7022656249994-18.85  891.7022656249994-24.32L 891.7022656249994-24.32ZM 904.6422656249995-64.16L 904.6422656249995-18.99Q 904.6422656249995-13.82  906.5222656249995-11.47Q 908.4022656249995-9.13  912.2522656249994-9.13L 912.2522656249994-9.13Q 916.0122656249995-9.13  917.8722656249994-11.47Q 919.7222656249994-13.82  919.7222656249994-18.99L 919.7222656249994-18.99L 919.7222656249994-64.16Q 919.7222656249994-69.63  917.8722656249994-72.12Q 916.0122656249995-74.61  912.2522656249994-74.61L 912.2522656249994-74.61Q 908.4022656249995-74.61  906.5222656249995-72.12Q 904.6422656249995-69.63  904.6422656249995-64.16L 904.6422656249995-64.16ZM 942.8253124999993-24.32L 942.8253124999993-59.57Q 942.8253124999993-65.04  943.8253124999993-69.02Q 944.8253124999993-73  946.4553124999993-75.71Q 948.0953124999993-78.42  950.2453124999993-80.08Q 952.3953124999994-81.74  954.6653124999993-82.64Q 956.9353124999993-83.54  959.2053124999993-83.84Q 961.4753124999993-84.13  963.3753124999993-84.13L 963.3753124999993-84.13Q 965.1853124999993-84.13  967.4053124999994-83.86Q 969.6253124999993-83.59  971.8953124999994-82.74Q 974.1653124999993-81.88  976.2953124999993-80.25Q 978.4153124999993-78.61  980.0553124999993-75.88Q 981.6853124999993-73.14  982.6953124999993-69.14Q 983.6953124999993-65.14  983.6953124999993-59.57L 983.6953124999993-59.57L 983.6953124999993-24.32Q 983.6953124999993-18.85  982.6953124999993-14.87Q 981.6853124999993-10.89  980.0253124999994-8.11Q 978.3653124999993-5.32  976.2253124999993-3.59Q 974.0753124999993-1.86  971.8253124999993-0.9Q 969.5753124999993 0.05  967.3553124999993 0.39Q 965.1353124999994 0.73  963.3753124999993 0.73L 963.3753124999993 0.73Q 961.4253124999993 0.73  959.1353124999994 0.39Q 956.8353124999993 0.05  954.5453124999993-0.9Q 952.2453124999993-1.86  950.1253124999993-3.56Q 947.9953124999993-5.27  946.3853124999994-8.06Q 944.7753124999994-10.84  943.7953124999993-14.84Q 942.8253124999993-18.85  942.8253124999993-24.32L 942.8253124999993-24.32ZM 955.7653124999994-64.16L 955.7653124999994-18.99Q 955.7653124999994-13.82  957.6453124999994-11.47Q 959.5253124999994-9.13  963.3753124999993-9.13L 963.3753124999993-9.13Q 967.1353124999994-9.13  968.9953124999993-11.47Q 970.8453124999993-13.82  970.8453124999993-18.99L 970.8453124999993-18.99L 970.8453124999993-64.16Q 970.8453124999993-69.63  968.9953124999993-72.12Q 967.1353124999994-74.61  963.3753124999993-74.61L 963.3753124999993-74.61Q 959.5253124999994-74.61  957.6453124999994-72.12Q 955.7653124999994-69.63  955.7653124999994-64.16L 955.7653124999994-64.16ZM 993.9483593749993-24.32L 993.9483593749993-59.57Q 993.9483593749993-65.04  994.9483593749993-69.02Q 995.9483593749993-73  997.5783593749993-75.71Q 999.2183593749993-78.42  1001.3683593749993-80.08Q 1003.5183593749994-81.74  1005.7883593749993-82.64Q 1008.0583593749993-83.54  1010.3283593749993-83.84Q 1012.5983593749993-84.13  1014.4983593749993-84.13L 1014.4983593749993-84.13Q 1016.3083593749993-84.13  1018.5283593749994-83.86Q 1020.7483593749993-83.59  1023.0183593749994-82.74Q 1025.2883593749993-81.88  1027.4183593749992-80.25Q 1029.5383593749993-78.61  1031.1783593749992-75.88Q 1032.8083593749993-73.14  1033.8183593749993-69.14Q 1034.8183593749993-65.14  1034.8183593749993-59.57L 1034.8183593749993-59.57L 1034.8183593749993-24.32Q 1034.8183593749993-18.85  1033.8183593749993-14.87Q 1032.8083593749993-10.89  1031.1483593749992-8.11Q 1029.4883593749994-5.32  1027.3483593749993-3.59Q 1025.1983593749994-1.86  1022.9483593749993-0.9Q 1020.6983593749993 0.05  1018.4783593749993 0.39Q 1016.2583593749994 0.73  1014.4983593749993 0.73L 1014.4983593749993 0.73Q 1012.5483593749993 0.73  1010.2583593749994 0.39Q 1007.9583593749993 0.05  1005.6683593749993-0.9Q 1003.3683593749993-1.86  1001.2483593749993-3.56Q 999.1183593749993-5.27  997.5083593749994-8.06Q 995.8983593749994-10.84  994.9183593749993-14.84Q 993.9483593749993-18.85  993.9483593749993-24.32L 993.9483593749993-24.32ZM 1006.8883593749994-64.16L 1006.8883593749994-18.99Q 1006.8883593749994-13.82  1008.7683593749994-11.47Q 1010.6483593749994-9.13  1014.4983593749993-9.13L 1014.4983593749993-9.13Q 1018.2583593749994-9.13  1020.1183593749993-11.47Q 1021.9683593749993-13.82  1021.9683593749993-18.99L 1021.9683593749993-18.99L 1021.9683593749993-64.16Q 1021.9683593749993-69.63  1020.1183593749993-72.12Q 1018.2583593749994-74.61  1014.4983593749993-74.61L 1014.4983593749993-74.61Q 1010.6483593749994-74.61  1008.7683593749994-72.12Q 1006.8883593749994-69.63  1006.8883593749994-64.16L 1006.8883593749994-64.16ZM 1045.0714062499994-24.32L 1045.0714062499994-59.57Q 1045.0714062499994-65.04  1046.0714062499994-69.02Q 1047.0714062499994-73  1048.7014062499993-75.71Q 1050.3414062499994-78.42  1052.4914062499993-80.08Q 1054.6414062499994-81.74  1056.9114062499993-82.64Q 1059.1814062499993-83.54  1061.4514062499993-83.84Q 1063.7214062499993-84.13  1065.6214062499994-84.13L 1065.6214062499994-84.13Q 1067.4314062499993-84.13  1069.6514062499994-83.86Q 1071.8714062499994-83.59  1074.1414062499994-82.74Q 1076.4114062499993-81.88  1078.5414062499992-80.25Q 1080.6614062499993-78.61  1082.3014062499992-75.88Q 1083.9314062499993-73.14  1084.9414062499993-69.14Q 1085.9414062499993-65.14  1085.9414062499993-59.57L 1085.9414062499993-59.57L 1085.9414062499993-24.32Q 1085.9414062499993-18.85  1084.9414062499993-14.87Q 1083.9314062499993-10.89  1082.2714062499992-8.11Q 1080.6114062499994-5.32  1078.4714062499993-3.59Q 1076.3214062499994-1.86  1074.0714062499994-0.9Q 1071.8214062499994 0.05  1069.6014062499994 0.39Q 1067.3814062499994 0.73  1065.6214062499994 0.73L 1065.6214062499994 0.73Q 1063.6714062499993 0.73  1061.3814062499994 0.39Q 1059.0814062499994 0.05  1056.7914062499992-0.9Q 1054.4914062499993-1.86  1052.3714062499994-3.56Q 1050.2414062499993-5.27  1048.6314062499994-8.06Q 1047.0214062499992-10.84  1046.0414062499992-14.84Q 1045.0714062499994-18.85  1045.0714062499994-24.32L 1045.0714062499994-24.32ZM 1058.0114062499993-64.16L 1058.0114062499993-18.99Q 1058.0114062499993-13.82  1059.8914062499994-11.47Q 1061.7714062499992-9.13  1065.6214062499994-9.13L 1065.6214062499994-9.13Q 1069.3814062499994-9.13  1071.2414062499993-11.47Q 1073.0914062499994-13.82  1073.0914062499994-18.99L 1073.0914062499994-18.99L 1073.0914062499994-64.16Q 1073.0914062499994-69.63  1071.2414062499993-72.12Q 1069.3814062499994-74.61  1065.6214062499994-74.61L 1065.6214062499994-74.61Q 1061.7714062499992-74.61  1059.8914062499994-72.12Q 1058.0114062499993-69.63  1058.0114062499993-64.16L 1058.0114062499993-64.16ZM 1098.4844531249994 0L 1098.4844531249994-9.52L 1108.1544531249992-9.52L 1108.1544531249992-66.41L 1097.8044531249993-57.28L 1092.3344531249993-63.67L 1111.2744531249994-83.4L 1120.7044531249994-83.4L 1120.6544531249992-83.3L 1120.7044531249994-83.35L 1120.7044531249994-9.52L 1130.3244531249993-9.52L 1130.3244531249993 0L 1098.4844531249994 0ZM 1136.7217968749994-24.32L 1136.7217968749994-59.57Q 1136.7217968749994-65.04  1137.7217968749994-69.02Q 1138.7217968749994-73  1140.3517968749993-75.71Q 1141.9917968749994-78.42  1144.1417968749993-80.08Q 1146.2917968749994-81.74  1148.5617968749993-82.64Q 1150.8317968749993-83.54  1153.1017968749993-83.84Q 1155.3717968749993-84.13  1157.2717968749994-84.13L 1157.2717968749994-84.13Q 1159.0817968749993-84.13  1161.3017968749994-83.86Q 1163.5217968749994-83.59  1165.7917968749994-82.74Q 1168.0617968749993-81.88  1170.1917968749992-80.25Q 1172.3117968749993-78.61  1173.9517968749992-75.88Q 1175.5817968749993-73.14  1176.5917968749993-69.14Q 1177.5917968749993-65.14  1177.5917968749993-59.57L 1177.5917968749993-59.57L 1177.5917968749993-24.32Q 1177.5917968749993-18.85  1176.5917968749993-14.87Q 1175.5817968749993-10.89  1173.9217968749992-8.11Q 1172.2617968749994-5.32  1170.1217968749993-3.59Q 1167.9717968749994-1.86  1165.7217968749994-0.9Q 1163.4717968749994 0.05  1161.2517968749994 0.39Q 1159.0317968749994 0.73  1157.2717968749994 0.73L 1157.2717968749994 0.73Q 1155.3217968749993 0.73  1153.0317968749994 0.39Q 1150.7317968749994 0.05  1148.4417968749992-0.9Q 1146.1417968749993-1.86  1144.0217968749994-3.56Q 1141.8917968749993-5.27  1140.2817968749994-8.06Q 1138.6717968749992-10.84  1137.6917968749992-14.84Q 1136.7217968749994-18.85  1136.7217968749994-24.32L 1136.7217968749994-24.32ZM 1149.6617968749993-64.16L 1149.6617968749993-18.99Q 1149.6617968749993-13.82  1151.5417968749994-11.47Q 1153.4217968749992-9.13  1157.2717968749994-9.13L 1157.2717968749994-9.13Q 1161.0317968749994-9.13  1162.8917968749993-11.47Q 1164.7417968749994-13.82  1164.7417968749994-18.99L 1164.7417968749994-18.99L 1164.7417968749994-64.16Q 1164.7417968749994-69.63  1162.8917968749993-72.12Q 1161.0317968749994-74.61  1157.2717968749994-74.61L 1157.2717968749994-74.61Q 1153.4217968749992-74.61  1151.5417968749994-72.12Q 1149.6617968749993-69.63  1149.6617968749993-64.16L 1149.6617968749993-64.16ZM 1190.1348437499992 0L 1190.1348437499992-9.52L 1199.804843749999-9.52L 1199.804843749999-66.41L 1189.454843749999-57.28L 1183.984843749999-63.67L 1202.9248437499991-83.4L 1212.3548437499992-83.4L 1212.304843749999-83.3L 1212.3548437499992-83.35L 1212.3548437499992-9.52L 1221.974843749999-9.52L 1221.974843749999 0L 1190.1348437499992 0ZM 1228.3721874999992-24.32L 1228.3721874999992-59.57Q 1228.3721874999992-65.04  1229.3721874999992-69.02Q 1230.3721874999992-73  1232.002187499999-75.71Q 1233.6421874999992-78.42  1235.792187499999-80.08Q 1237.9421874999991-81.74  1240.2121874999991-82.64Q 1242.482187499999-83.54  1244.752187499999-83.84Q 1247.022187499999-84.13  1248.9221874999992-84.13L 1248.9221874999992-84.13Q 1250.732187499999-84.13  1252.9521874999991-83.86Q 1255.1721874999992-83.59  1257.4421874999991-82.74Q 1259.7121874999991-81.88  1261.842187499999-80.25Q 1263.9621874999991-78.61  1265.602187499999-75.88Q 1267.232187499999-73.14  1268.242187499999-69.14Q 1269.242187499999-65.14  1269.242187499999-59.57L 1269.242187499999-59.57L 1269.242187499999-24.32Q 1269.242187499999-18.85  1268.242187499999-14.87Q 1267.232187499999-10.89  1265.572187499999-8.11Q 1263.9121874999992-5.32  1261.772187499999-3.59Q 1259.6221874999992-1.86  1257.3721874999992-0.9Q 1255.1221874999992 0.05  1252.9021874999992 0.39Q 1250.6821874999991 0.73  1248.9221874999992 0.73L 1248.9221874999992 0.73Q 1246.972187499999 0.73  1244.6821874999991 0.39Q 1242.3821874999992 0.05  1240.092187499999-0.9Q 1237.792187499999-1.86  1235.6721874999992-3.56Q 1233.542187499999-5.27  1231.9321874999991-8.06Q 1230.322187499999-10.84  1229.342187499999-14.84Q 1228.3721874999992-18.85  1228.3721874999992-24.32L 1228.3721874999992-24.32ZM 1241.312187499999-64.16L 1241.312187499999-18.99Q 1241.312187499999-13.82  1243.1921874999991-11.47Q 1245.072187499999-9.13  1248.9221874999992-9.13L 1248.9221874999992-9.13Q 1252.6821874999991-9.13  1254.542187499999-11.47Q 1256.3921874999992-13.82  1256.3921874999992-18.99L 1256.3921874999992-18.99L 1256.3921874999992-64.16Q 1256.3921874999992-69.63  1254.542187499999-72.12Q 1252.6821874999991-74.61  1248.9221874999992-74.61L 1248.9221874999992-74.61Q 1245.072187499999-74.61  1243.1921874999991-72.12Q 1241.312187499999-69.63  1241.312187499999-64.16L 1241.312187499999-64.16ZM 1281.7852343749992 0L 1281.7852343749992-9.52L 1291.455234374999-9.52L 1291.455234374999-66.41L 1281.105234374999-57.28L 1275.635234374999-63.67L 1294.5752343749991-83.4L 1304.0052343749992-83.4L 1303.955234374999-83.3L 1304.0052343749992-83.35L 1304.0052343749992-9.52L 1313.625234374999-9.52L 1313.625234374999 0L 1281.7852343749992 0ZM 1320.0225781249992-24.32L 1320.0225781249992-59.57Q 1320.0225781249992-65.04  1321.0225781249992-69.02Q 1322.0225781249992-73  1323.652578124999-75.71Q 1325.2925781249992-78.42  1327.442578124999-80.08Q 1329.5925781249991-81.74  1331.8625781249991-82.64Q 1334.132578124999-83.54  1336.402578124999-83.84Q 1338.672578124999-84.13  1340.5725781249992-84.13L 1340.5725781249992-84.13Q 1342.382578124999-84.13  1344.6025781249991-83.86Q 1346.8225781249992-83.59  1349.0925781249991-82.74Q 1351.3625781249991-81.88  1353.492578124999-80.25Q 1355.6125781249991-78.61  1357.252578124999-75.88Q 1358.882578124999-73.14  1359.892578124999-69.14Q 1360.892578124999-65.14  1360.892578124999-59.57L 1360.892578124999-59.57L 1360.892578124999-24.32Q 1360.892578124999-18.85  1359.892578124999-14.87Q 1358.882578124999-10.89  1357.222578124999-8.11Q 1355.5625781249992-5.32  1353.422578124999-3.59Q 1351.2725781249992-1.86  1349.0225781249992-0.9Q 1346.7725781249992 0.05  1344.5525781249992 0.39Q 1342.3325781249991 0.73  1340.5725781249992 0.73L 1340.5725781249992 0.73Q 1338.622578124999 0.73  1336.3325781249991 0.39Q 1334.0325781249992 0.05  1331.742578124999-0.9Q 1329.442578124999-1.86  1327.3225781249992-3.56Q 1325.192578124999-5.27  1323.5825781249991-8.06Q 1321.972578124999-10.84  1320.992578124999-14.84Q 1320.0225781249992-18.85  1320.0225781249992-24.32L 1320.0225781249992-24.32ZM 1332.962578124999-64.16L 1332.962578124999-18.99Q 1332.962578124999-13.82  1334.8425781249991-11.47Q 1336.722578124999-9.13  1340.5725781249992-9.13L 1340.5725781249992-9.13Q 1344.3325781249991-9.13  1346.192578124999-11.47Q 1348.0425781249992-13.82  1348.0425781249992-18.99L 1348.0425781249992-18.99L 1348.0425781249992-64.16Q 1348.0425781249992-69.63  1346.192578124999-72.12Q 1344.3325781249991-74.61  1340.5725781249992-74.61L 1340.5725781249992-74.61Q 1336.722578124999-74.61  1334.8425781249991-72.12Q 1332.962578124999-69.63  1332.962578124999-64.16L 1332.962578124999-64.16ZM 1373.4356249999992 0L 1373.4356249999992-9.52L 1383.105624999999-9.52L 1383.105624999999-66.41L 1372.755624999999-57.28L 1367.285624999999-63.67L 1386.2256249999991-83.4L 1395.6556249999992-83.4L 1395.605624999999-83.3L 1395.6556249999992-83.35L 1395.6556249999992-9.52L 1405.275624999999-9.52L 1405.275624999999 0L 1373.4356249999992 0ZM 1413.9629687499992 0L 1413.9629687499992-9.52L 1423.632968749999-9.52L 1423.632968749999-66.41L 1413.282968749999-57.28L 1407.812968749999-63.67L 1426.7529687499991-83.4L 1436.1829687499992-83.4L 1436.132968749999-83.3L 1436.1829687499992-83.35L 1436.1829687499992-9.52L 1445.802968749999-9.52L 1445.802968749999 0L 1413.9629687499992 0ZM 1452.2003124999992-24.32L 1452.2003124999992-59.57Q 1452.2003124999992-65.04  1453.2003124999992-69.02Q 1454.2003124999992-73  1455.830312499999-75.71Q 1457.4703124999992-78.42  1459.620312499999-80.08Q 1461.7703124999991-81.74  1464.0403124999991-82.64Q 1466.310312499999-83.54  1468.580312499999-83.84Q 1470.850312499999-84.13  1472.7503124999992-84.13L 1472.7503124999992-84.13Q 1474.560312499999-84.13  1476.7803124999991-83.86Q 1479.0003124999992-83.59  1481.2703124999991-82.74Q 1483.5403124999991-81.88  1485.670312499999-80.25Q 1487.7903124999991-78.61  1489.430312499999-75.88Q 1491.060312499999-73.14  1492.070312499999-69.14Q 1493.070312499999-65.14  1493.070312499999-59.57L 1493.070312499999-59.57L 1493.070312499999-24.32Q 1493.070312499999-18.85  1492.070312499999-14.87Q 1491.060312499999-10.89  1489.400312499999-8.11Q 1487.7403124999992-5.32  1485.600312499999-3.59Q 1483.4503124999992-1.86  1481.2003124999992-0.9Q 1478.9503124999992 0.05  1476.7303124999992 0.39Q 1474.5103124999991 0.73  1472.7503124999992 0.73L 1472.7503124999992 0.73Q 1470.800312499999 0.73  1468.5103124999991 0.39Q 1466.2103124999992 0.05  1463.920312499999-0.9Q 1461.620312499999-1.86  1459.5003124999992-3.56Q 1457.370312499999-5.27  1455.7603124999991-8.06Q 1454.150312499999-10.84  1453.170312499999-14.84Q 1452.2003124999992-18.85  1452.2003124999992-24.32L 1452.2003124999992-24.32ZM 1465.140312499999-64.16L 1465.140312499999-18.99Q 1465.140312499999-13.82  1467.0203124999991-11.47Q 1468.900312499999-9.13  1472.7503124999992-9.13L 1472.7503124999992-9.13Q 1476.5103124999991-9.13  1478.370312499999-11.47Q 1480.2203124999992-13.82  1480.2203124999992-18.99L 1480.2203124999992-18.99L 1480.2203124999992-64.16Q 1480.2203124999992-69.63  1478.370312499999-72.12Q 1476.5103124999991-74.61  1472.7503124999992-74.61L 1472.7503124999992-74.61Q 1468.900312499999-74.61  1467.0203124999991-72.12Q 1465.140312499999-69.63  1465.140312499999-64.16L 1465.140312499999-64.16Z" data-textpath="01110011010001000100000101010110" data-text-anchor="middle" data-font-size="100" data-letterspacing="0" data-side="left" data-offset="0.5" data-dx="0" data-dy="0" data-xmlspace="preserve" data-href="" data-font="Fjalla One" data-font-src="/Content/clientfonts/fjallaone.woff" data-font-scale="contain" transform="translate(0,0)" data-x="0" data-y="0" fill="url('#linearGradientSkl2eqa3j1n')"></path>
        </g>
      </svg>
    </g>
    <g transform="matrix(0.114,0,0,0.1303,185.1791,93.6417)">
      <svg width="1466.40625" height="185" style="overflow: visible;">
        <defs>
          <linearGradient x1="0" y1="0.5" x2="1" y2="0.5" id="linearGradientSkl2eqa3j1q">
            <stop offset="0%" stop-color="#7e7e7e"></stop>
            <stop offset="100%" stop-color="#7e7e7e"></stop>
          </linearGradient>
        </defs>
        <g transform="matrix(1,0,0,1,0,93.75)">
          <path d="M 5.1300000000000034-24.32L 5.1300000000000034-59.57Q 5.1300000000000034-65.04  6.1300000000000034-69.02Q 7.1300000000000034-73  8.760000000000003-75.71Q 10.400000000000004-78.42  12.550000000000004-80.08Q 14.700000000000003-81.74  16.970000000000002-82.64Q 19.240000000000002-83.54  21.510000000000005-83.84Q 23.780000000000005-84.13  25.680000000000003-84.13L 25.680000000000003-84.13Q 27.490000000000002-84.13  29.710000000000004-83.86Q 31.930000000000003-83.59  34.2-82.74Q 36.47-81.88  38.60000000000001-80.25Q 40.72-78.61  42.36-75.88Q 43.99000000000001-73.14  45-69.14Q 46-65.14  46-59.57L 46-59.57L 46-24.32Q 46-18.85  45-14.87Q 43.99000000000001-10.89  42.33-8.11Q 40.67-5.32  38.53-3.59Q 36.38000000000001-1.86  34.13000000000001-0.9Q 31.880000000000003 0.05  29.660000000000004 0.39Q 27.440000000000005 0.73  25.680000000000003 0.73L 25.680000000000003 0.73Q 23.730000000000004 0.73  21.440000000000005 0.39Q 19.140000000000004 0.05  16.850000000000005-0.9Q 14.550000000000004-1.86  12.430000000000003-3.56Q 10.300000000000004-5.27  8.690000000000003-8.06Q 7.080000000000004-10.84  6.100000000000003-14.84Q 5.1300000000000034-18.85  5.1300000000000034-24.32L 5.1300000000000034-24.32ZM 18.070000000000004-64.16L 18.070000000000004-18.99Q 18.070000000000004-13.82  19.950000000000003-11.47Q 21.830000000000002-9.13  25.680000000000003-9.13L 25.680000000000003-9.13Q 29.440000000000005-9.13  31.300000000000004-11.47Q 33.150000000000006-13.82  33.150000000000006-18.99L 33.150000000000006-18.99L 33.150000000000006-64.16Q 33.150000000000006-69.63  31.300000000000004-72.12Q 29.440000000000005-74.61  25.680000000000003-74.61L 25.680000000000003-74.61Q 21.830000000000002-74.61  19.950000000000003-72.12Q 18.070000000000004-69.63  18.070000000000004-64.16L 18.070000000000004-64.16ZM 58.54304687500003 0L 58.54304687500003-9.52L 68.21304687500003-9.52L 68.21304687500003-66.41L 57.86304687500003-57.28L 52.39304687500003-63.67L 71.33304687500004-83.4L 80.76304687500003-83.4L 80.71304687500003-83.3L 80.76304687500003-83.35L 80.76304687500003-9.52L 90.38304687500002-9.52L 90.38304687500002 0L 58.54304687500003 0ZM 96.78039062500001-24.32L 96.78039062500001-59.57Q 96.78039062500001-65.04  97.78039062500001-69.02Q 98.78039062500001-73  100.41039062500002-75.71Q 102.05039062500002-78.42  104.20039062500001-80.08Q 106.35039062500002-81.74  108.62039062500001-82.64Q 110.89039062500001-83.54  113.16039062500002-83.84Q 115.43039062500002-84.13  117.330390625-84.13L 117.330390625-84.13Q 119.14039062500001-84.13  121.36039062500001-83.86Q 123.580390625-83.59  125.85039062500002-82.74Q 128.12039062500003-81.88  130.25039062500002-80.25Q 132.37039062500003-78.61  134.010390625-75.88Q 135.640390625-73.14  136.650390625-69.14Q 137.650390625-65.14  137.650390625-59.57L 137.650390625-59.57L 137.650390625-24.32Q 137.650390625-18.85  136.650390625-14.87Q 135.640390625-10.89  133.980390625-8.11Q 132.32039062500002-5.32  130.18039062500003-3.59Q 128.03039062500002-1.86  125.78039062500002-0.9Q 123.53039062500001 0.05  121.31039062500001 0.39Q 119.09039062500001 0.73  117.330390625 0.73L 117.330390625 0.73Q 115.38039062500002 0.73  113.09039062500001 0.39Q 110.79039062500001 0.05  108.50039062500002-0.9Q 106.20039062500001-1.86  104.080390625-3.56Q 101.95039062500001-5.27  100.34039062500001-8.06Q 98.73039062500001-10.84  97.75039062500001-14.84Q 96.78039062500001-18.85  96.78039062500001-24.32L 96.78039062500001-24.32ZM 109.72039062500002-64.16L 109.72039062500002-18.99Q 109.72039062500002-13.82  111.60039062500002-11.47Q 113.48039062500001-9.13  117.330390625-9.13L 117.330390625-9.13Q 121.09039062500001-9.13  122.95039062500001-11.47Q 124.800390625-13.82  124.800390625-18.99L 124.800390625-18.99L 124.800390625-64.16Q 124.800390625-69.63  122.95039062500001-72.12Q 121.09039062500001-74.61  117.330390625-74.61L 117.330390625-74.61Q 113.48039062500001-74.61  111.60039062500002-72.12Q 109.72039062500002-69.63  109.72039062500002-64.16L 109.72039062500002-64.16ZM 147.90343750000002-24.32L 147.90343750000002-59.57Q 147.90343750000002-65.04  148.90343750000002-69.02Q 149.90343750000002-73  151.53343750000002-75.71Q 153.17343750000003-78.42  155.32343750000004-80.08Q 157.47343750000002-81.74  159.74343750000003-82.64Q 162.01343750000004-83.54  164.28343750000002-83.84Q 166.55343750000003-84.13  168.45343750000004-84.13L 168.45343750000004-84.13Q 170.26343750000004-84.13  172.48343750000004-83.86Q 174.70343750000004-83.59  176.97343750000005-82.74Q 179.24343750000003-81.88  181.37343750000002-80.25Q 183.49343750000003-78.61  185.1334375-75.88Q 186.76343750000004-73.14  187.77343750000003-69.14Q 188.77343750000003-65.14  188.77343750000003-59.57L 188.77343750000003-59.57L 188.77343750000003-24.32Q 188.77343750000003-18.85  187.77343750000003-14.87Q 186.76343750000004-10.89  185.10343750000004-8.11Q 183.44343750000002-5.32  181.30343750000003-3.59Q 179.15343750000002-1.86  176.90343750000002-0.9Q 174.65343750000002 0.05  172.43343750000003 0.39Q 170.21343750000003 0.73  168.45343750000004 0.73L 168.45343750000004 0.73Q 166.50343750000002 0.73  164.21343750000003 0.39Q 161.91343750000004 0.05  159.62343750000002-0.9Q 157.32343750000004-1.86  155.20343750000004-3.56Q 153.07343750000004-5.27  151.46343750000003-8.06Q 149.85343750000004-10.84  148.87343750000002-14.84Q 147.90343750000002-18.85  147.90343750000002-24.32L 147.90343750000002-24.32ZM 160.84343750000002-64.16L 160.84343750000002-18.99Q 160.84343750000002-13.82  162.72343750000002-11.47Q 164.60343750000004-9.13  168.45343750000004-9.13L 168.45343750000004-9.13Q 172.21343750000003-9.13  174.07343750000004-11.47Q 175.92343750000003-13.82  175.92343750000003-18.99L 175.92343750000003-18.99L 175.92343750000003-64.16Q 175.92343750000003-69.63  174.07343750000004-72.12Q 172.21343750000003-74.61  168.45343750000004-74.61L 168.45343750000004-74.61Q 164.60343750000004-74.61  162.72343750000002-72.12Q 160.84343750000002-69.63  160.84343750000002-64.16L 160.84343750000002-64.16ZM 201.31648437500002 0L 201.31648437500002-9.52L 210.98648437500003-9.52L 210.98648437500003-66.41L 200.63648437500004-57.28L 195.16648437500004-63.67L 214.10648437500004-83.4L 223.53648437500004-83.4L 223.48648437500003-83.3L 223.53648437500004-83.35L 223.53648437500004-9.52L 233.15648437500002-9.52L 233.15648437500002 0L 201.31648437500002 0ZM 241.843828125 0L 241.843828125-9.52L 251.513828125-9.52L 251.513828125-66.41L 241.163828125-57.28L 235.693828125-63.67L 254.633828125-83.4L 264.063828125-83.4L 264.013828125-83.3L 264.063828125-83.35L 264.063828125-9.52L 273.683828125-9.52L 273.683828125 0L 241.843828125 0ZM 280.081171875-24.32L 280.081171875-59.57Q 280.081171875-65.04  281.081171875-69.02Q 282.081171875-73  283.711171875-75.71Q 285.351171875-78.42  287.501171875-80.08Q 289.651171875-81.74  291.921171875-82.64Q 294.191171875-83.54  296.461171875-83.84Q 298.731171875-84.13  300.631171875-84.13L 300.631171875-84.13Q 302.441171875-84.13  304.661171875-83.86Q 306.881171875-83.59  309.151171875-82.74Q 311.421171875-81.88  313.551171875-80.25Q 315.671171875-78.61  317.311171875-75.88Q 318.941171875-73.14  319.951171875-69.14Q 320.951171875-65.14  320.951171875-59.57L 320.951171875-59.57L 320.951171875-24.32Q 320.951171875-18.85  319.951171875-14.87Q 318.941171875-10.89  317.281171875-8.11Q 315.621171875-5.32  313.481171875-3.59Q 311.331171875-1.86  309.081171875-0.9Q 306.831171875 0.05  304.611171875 0.39Q 302.391171875 0.73  300.631171875 0.73L 300.631171875 0.73Q 298.681171875 0.73  296.391171875 0.39Q 294.091171875 0.05  291.801171875-0.9Q 289.501171875-1.86  287.381171875-3.56Q 285.251171875-5.27  283.641171875-8.06Q 282.031171875-10.84  281.051171875-14.84Q 280.081171875-18.85  280.081171875-24.32L 280.081171875-24.32ZM 293.021171875-64.16L 293.021171875-18.99Q 293.021171875-13.82  294.901171875-11.47Q 296.781171875-9.13  300.631171875-9.13L 300.631171875-9.13Q 304.391171875-9.13  306.251171875-11.47Q 308.101171875-13.82  308.101171875-18.99L 308.101171875-18.99L 308.101171875-64.16Q 308.101171875-69.63  306.251171875-72.12Q 304.391171875-74.61  300.631171875-74.61L 300.631171875-74.61Q 296.781171875-74.61  294.901171875-72.12Q 293.021171875-69.63  293.021171875-64.16L 293.021171875-64.16ZM 331.20421875000005-24.32L 331.20421875000005-59.57Q 331.20421875000005-65.04  332.20421875000005-69.02Q 333.20421875000005-73  334.83421875000005-75.71Q 336.47421875000003-78.42  338.62421875000007-80.08Q 340.77421875000005-81.74  343.04421875-82.64Q 345.31421875000007-83.54  347.58421875000005-83.84Q 349.8542187500001-84.13  351.75421875000006-84.13L 351.75421875000006-84.13Q 353.56421875000007-84.13  355.78421875000004-83.86Q 358.00421875000006-83.59  360.27421875000005-82.74Q 362.54421875-81.88  364.6742187500001-80.25Q 366.79421875-78.61  368.43421875000007-75.88Q 370.06421875000007-73.14  371.07421875000006-69.14Q 372.07421875000006-65.14  372.07421875000006-59.57L 372.07421875000006-59.57L 372.07421875000006-24.32Q 372.07421875000006-18.85  371.07421875000006-14.87Q 370.06421875000007-10.89  368.40421875000004-8.11Q 366.7442187500001-5.32  364.6042187500001-3.59Q 362.45421875000005-1.86  360.20421875000005-0.9Q 357.95421875000005 0.05  355.7342187500001 0.39Q 353.51421875000005 0.73  351.75421875000006 0.73L 351.75421875000006 0.73Q 349.8042187500001 0.73  347.51421875000005 0.39Q 345.21421875000004 0.05  342.9242187500001-0.9Q 340.62421875000007-1.86  338.50421875000006-3.56Q 336.37421875000007-5.27  334.76421875000005-8.06Q 333.15421875000004-10.84  332.1742187500001-14.84Q 331.20421875000005-18.85  331.20421875000005-24.32L 331.20421875000005-24.32ZM 344.14421875000005-64.16L 344.14421875000005-18.99Q 344.14421875000005-13.82  346.02421875000005-11.47Q 347.90421875000004-9.13  351.75421875000006-9.13L 351.75421875000006-9.13Q 355.51421875000005-9.13  357.37421875000007-11.47Q 359.22421875000003-13.82  359.22421875000003-18.99L 359.22421875000003-18.99L 359.22421875000003-64.16Q 359.22421875000003-69.63  357.37421875000007-72.12Q 355.51421875000005-74.61  351.75421875000006-74.61L 351.75421875000006-74.61Q 347.90421875000004-74.61  346.02421875000005-72.12Q 344.14421875000005-69.63  344.14421875000005-64.16L 344.14421875000005-64.16ZM 382.32726562500005-24.32L 382.32726562500005-59.57Q 382.32726562500005-65.04  383.32726562500005-69.02Q 384.32726562500005-73  385.95726562500005-75.71Q 387.59726562500003-78.42  389.74726562500007-80.08Q 391.89726562500005-81.74  394.167265625-82.64Q 396.43726562500007-83.54  398.70726562500005-83.84Q 400.9772656250001-84.13  402.87726562500006-84.13L 402.87726562500006-84.13Q 404.68726562500007-84.13  406.90726562500004-83.86Q 409.12726562500006-83.59  411.39726562500005-82.74Q 413.667265625-81.88  415.7972656250001-80.25Q 417.917265625-78.61  419.55726562500007-75.88Q 421.18726562500007-73.14  422.19726562500006-69.14Q 423.19726562500006-65.14  423.19726562500006-59.57L 423.19726562500006-59.57L 423.19726562500006-24.32Q 423.19726562500006-18.85  422.19726562500006-14.87Q 421.18726562500007-10.89  419.52726562500004-8.11Q 417.8672656250001-5.32  415.7272656250001-3.59Q 413.57726562500005-1.86  411.32726562500005-0.9Q 409.07726562500005 0.05  406.8572656250001 0.39Q 404.63726562500005 0.73  402.87726562500006 0.73L 402.87726562500006 0.73Q 400.9272656250001 0.73  398.63726562500005 0.39Q 396.33726562500004 0.05  394.0472656250001-0.9Q 391.74726562500007-1.86  389.62726562500006-3.56Q 387.49726562500007-5.27  385.88726562500005-8.06Q 384.27726562500004-10.84  383.2972656250001-14.84Q 382.32726562500005-18.85  382.32726562500005-24.32L 382.32726562500005-24.32ZM 395.26726562500005-64.16L 395.26726562500005-18.99Q 395.26726562500005-13.82  397.14726562500005-11.47Q 399.02726562500004-9.13  402.87726562500006-9.13L 402.87726562500006-9.13Q 406.63726562500005-9.13  408.49726562500007-11.47Q 410.34726562500003-13.82  410.34726562500003-18.99L 410.34726562500003-18.99L 410.34726562500003-64.16Q 410.34726562500003-69.63  408.49726562500007-72.12Q 406.63726562500005-74.61  402.87726562500006-74.61L 402.87726562500006-74.61Q 399.02726562500004-74.61  397.14726562500005-72.12Q 395.26726562500005-69.63  395.26726562500005-64.16L 395.26726562500005-64.16ZM 435.7403125000001 0L 435.7403125000001-9.52L 445.41031250000003-9.52L 445.41031250000003-66.41L 435.06031250000007-57.28L 429.59031250000004-63.67L 448.53031250000004-83.4L 457.96031250000004-83.4L 457.91031250000003-83.3L 457.96031250000004-83.35L 457.96031250000004-9.52L 467.58031250000005-9.52L 467.58031250000005 0L 435.7403125000001 0ZM 476.2676562500001 0L 476.2676562500001-9.52L 485.93765625000003-9.52L 485.93765625000003-66.41L 475.58765625000007-57.28L 470.11765625000004-63.67L 489.05765625000004-83.4L 498.48765625000004-83.4L 498.43765625000003-83.3L 498.48765625000004-83.35L 498.48765625000004-9.52L 508.10765625000005-9.52L 508.10765625000005 0L 476.2676562500001 0ZM 516.795 0L 516.795-9.52L 526.465-9.52L 526.465-66.41L 516.115-57.28L 510.645-63.67L 529.585-83.4L 539.015-83.4L 538.965-83.3L 539.015-83.35L 539.015-9.52L 548.635-9.52L 548.635 0L 516.795 0ZM 555.03234375-24.32L 555.03234375-59.57Q 555.03234375-65.04  556.03234375-69.02Q 557.03234375-73  558.66234375-75.71Q 560.30234375-78.42  562.45234375-80.08Q 564.60234375-81.74  566.87234375-82.64Q 569.14234375-83.54  571.41234375-83.84Q 573.68234375-84.13  575.58234375-84.13L 575.58234375-84.13Q 577.39234375-84.13  579.61234375-83.86Q 581.83234375-83.59  584.10234375-82.74Q 586.37234375-81.88  588.50234375-80.25Q 590.62234375-78.61  592.26234375-75.88Q 593.89234375-73.14  594.90234375-69.14Q 595.90234375-65.14  595.90234375-59.57L 595.90234375-59.57L 595.90234375-24.32Q 595.90234375-18.85  594.90234375-14.87Q 593.89234375-10.89  592.23234375-8.11Q 590.57234375-5.32  588.43234375-3.59Q 586.28234375-1.86  584.03234375-0.9Q 581.78234375 0.05  579.56234375 0.39Q 577.34234375 0.73  575.58234375 0.73L 575.58234375 0.73Q 573.63234375 0.73  571.34234375 0.39Q 569.04234375 0.05  566.75234375-0.9Q 564.45234375-1.86  562.33234375-3.56Q 560.20234375-5.27  558.59234375-8.06Q 556.98234375-10.84  556.00234375-14.84Q 555.03234375-18.85  555.03234375-24.32L 555.03234375-24.32ZM 567.97234375-64.16L 567.97234375-18.99Q 567.97234375-13.82  569.85234375-11.47Q 571.73234375-9.13  575.58234375-9.13L 575.58234375-9.13Q 579.34234375-9.13  581.20234375-11.47Q 583.05234375-13.82  583.05234375-18.99L 583.05234375-18.99L 583.05234375-64.16Q 583.05234375-69.63  581.20234375-72.12Q 579.34234375-74.61  575.58234375-74.61L 575.58234375-74.61Q 571.73234375-74.61  569.85234375-72.12Q 567.97234375-69.63  567.97234375-64.16L 567.97234375-64.16ZM 608.445390625 0L 608.445390625-9.52L 618.115390625-9.52L 618.115390625-66.41L 607.765390625-57.28L 602.295390625-63.67L 621.235390625-83.4L 630.665390625-83.4L 630.615390625-83.3L 630.665390625-83.35L 630.665390625-9.52L 640.285390625-9.52L 640.285390625 0L 608.445390625 0ZM 646.682734375-24.32L 646.682734375-59.57Q 646.682734375-65.04  647.682734375-69.02Q 648.682734375-73  650.312734375-75.71Q 651.952734375-78.42  654.102734375-80.08Q 656.252734375-81.74  658.522734375-82.64Q 660.792734375-83.54  663.062734375-83.84Q 665.332734375-84.13  667.232734375-84.13L 667.232734375-84.13Q 669.042734375-84.13  671.262734375-83.86Q 673.482734375-83.59  675.752734375-82.74Q 678.022734375-81.88  680.152734375-80.25Q 682.272734375-78.61  683.912734375-75.88Q 685.542734375-73.14  686.552734375-69.14Q 687.552734375-65.14  687.552734375-59.57L 687.552734375-59.57L 687.552734375-24.32Q 687.552734375-18.85  686.552734375-14.87Q 685.542734375-10.89  683.882734375-8.11Q 682.222734375-5.32  680.082734375-3.59Q 677.932734375-1.86  675.682734375-0.9Q 673.432734375 0.05  671.212734375 0.39Q 668.992734375 0.73  667.232734375 0.73L 667.232734375 0.73Q 665.282734375 0.73  662.992734375 0.39Q 660.692734375 0.05  658.402734375-0.9Q 656.102734375-1.86  653.982734375-3.56Q 651.852734375-5.27  650.242734375-8.06Q 648.632734375-10.84  647.652734375-14.84Q 646.682734375-18.85  646.682734375-24.32L 646.682734375-24.32ZM 659.622734375-64.16L 659.622734375-18.99Q 659.622734375-13.82  661.502734375-11.47Q 663.382734375-9.13  667.232734375-9.13L 667.232734375-9.13Q 670.992734375-9.13  672.852734375-11.47Q 674.702734375-13.82  674.702734375-18.99L 674.702734375-18.99L 674.702734375-64.16Q 674.702734375-69.63  672.852734375-72.12Q 670.992734375-74.61  667.232734375-74.61L 667.232734375-74.61Q 663.382734375-74.61  661.502734375-72.12Q 659.622734375-69.63  659.622734375-64.16L 659.622734375-64.16ZM 700.09578125 0L 700.09578125-9.52L 709.76578125-9.52L 709.76578125-66.41L 699.41578125-57.28L 693.94578125-63.67L 712.88578125-83.4L 722.31578125-83.4L 722.26578125-83.3L 722.31578125-83.35L 722.31578125-9.52L 731.93578125-9.52L 731.93578125 0L 700.09578125 0ZM 738.333125-24.32L 738.333125-59.57Q 738.333125-65.04  739.333125-69.02Q 740.333125-73  741.963125-75.71Q 743.603125-78.42  745.753125-80.08Q 747.903125-81.74  750.173125-82.64Q 752.443125-83.54  754.713125-83.84Q 756.983125-84.13  758.883125-84.13L 758.883125-84.13Q 760.693125-84.13  762.913125-83.86Q 765.133125-83.59  767.403125-82.74Q 769.673125-81.88  771.803125-80.25Q 773.923125-78.61  775.563125-75.88Q 777.193125-73.14  778.203125-69.14Q 779.203125-65.14  779.203125-59.57L 779.203125-59.57L 779.203125-24.32Q 779.203125-18.85  778.203125-14.87Q 777.193125-10.89  775.533125-8.11Q 773.873125-5.32  771.733125-3.59Q 769.583125-1.86  767.333125-0.9Q 765.083125 0.05  762.863125 0.39Q 760.643125 0.73  758.883125 0.73L 758.883125 0.73Q 756.933125 0.73  754.643125 0.39Q 752.343125 0.05  750.053125-0.9Q 747.753125-1.86  745.633125-3.56Q 743.503125-5.27  741.893125-8.06Q 740.283125-10.84  739.303125-14.84Q 738.333125-18.85  738.333125-24.32L 738.333125-24.32ZM 751.273125-64.16L 751.273125-18.99Q 751.273125-13.82  753.153125-11.47Q 755.033125-9.13  758.883125-9.13L 758.883125-9.13Q 762.643125-9.13  764.503125-11.47Q 766.353125-13.82  766.353125-18.99L 766.353125-18.99L 766.353125-64.16Q 766.353125-69.63  764.503125-72.12Q 762.643125-74.61  758.883125-74.61L 758.883125-74.61Q 755.033125-74.61  753.153125-72.12Q 751.273125-69.63  751.273125-64.16L 751.273125-64.16ZM 791.746171875 0L 791.746171875-9.52L 801.416171875-9.52L 801.416171875-66.41L 791.066171875-57.28L 785.596171875-63.67L 804.536171875-83.4L 813.966171875-83.4L 813.916171875-83.3L 813.966171875-83.35L 813.966171875-9.52L 823.586171875-9.52L 823.586171875 0L 791.746171875 0ZM 832.273515625 0L 832.273515625-9.52L 841.943515625-9.52L 841.943515625-66.41L 831.593515625-57.28L 826.123515625-63.67L 845.063515625-83.4L 854.493515625-83.4L 854.443515625-83.3L 854.493515625-83.35L 854.493515625-9.52L 864.113515625-9.52L 864.113515625 0L 832.273515625 0ZM 870.510859375-24.32L 870.510859375-59.57Q 870.510859375-65.04  871.510859375-69.02Q 872.510859375-73  874.140859375-75.71Q 875.780859375-78.42  877.930859375-80.08Q 880.080859375-81.74  882.350859375-82.64Q 884.620859375-83.54  886.890859375-83.84Q 889.160859375-84.13  891.060859375-84.13L 891.060859375-84.13Q 892.870859375-84.13  895.090859375-83.86Q 897.310859375-83.59  899.580859375-82.74Q 901.850859375-81.88  903.980859375-80.25Q 906.100859375-78.61  907.740859375-75.88Q 909.370859375-73.14  910.380859375-69.14Q 911.380859375-65.14  911.380859375-59.57L 911.380859375-59.57L 911.380859375-24.32Q 911.380859375-18.85  910.380859375-14.87Q 909.370859375-10.89  907.710859375-8.11Q 906.050859375-5.32  903.910859375-3.59Q 901.760859375-1.86  899.510859375-0.9Q 897.260859375 0.05  895.040859375 0.39Q 892.820859375 0.73  891.060859375 0.73L 891.060859375 0.73Q 889.110859375 0.73  886.820859375 0.39Q 884.520859375 0.05  882.230859375-0.9Q 879.930859375-1.86  877.810859375-3.56Q 875.680859375-5.27  874.070859375-8.06Q 872.460859375-10.84  871.480859375-14.84Q 870.510859375-18.85  870.510859375-24.32L 870.510859375-24.32ZM 883.450859375-64.16L 883.450859375-18.99Q 883.450859375-13.82  885.330859375-11.47Q 887.210859375-9.13  891.060859375-9.13L 891.060859375-9.13Q 894.820859375-9.13  896.680859375-11.47Q 898.530859375-13.82  898.530859375-18.99L 898.530859375-18.99L 898.530859375-64.16Q 898.530859375-69.63  896.680859375-72.12Q 894.820859375-74.61  891.060859375-74.61L 891.060859375-74.61Q 887.210859375-74.61  885.330859375-72.12Q 883.450859375-69.63  883.450859375-64.16L 883.450859375-64.16ZM 923.92390625 0L 923.92390625-9.52L 933.59390625-9.52L 933.59390625-66.41L 923.24390625-57.28L 917.77390625-63.67L 936.71390625-83.4L 946.14390625-83.4L 946.09390625-83.3L 946.14390625-83.35L 946.14390625-9.52L 955.76390625-9.52L 955.76390625 0L 923.92390625 0ZM 962.16125-24.32L 962.16125-59.57Q 962.16125-65.04  963.16125-69.02Q 964.16125-73  965.79125-75.71Q 967.43125-78.42  969.58125-80.08Q 971.73125-81.74  974.00125-82.64Q 976.27125-83.54  978.54125-83.84Q 980.81125-84.13  982.71125-84.13L 982.71125-84.13Q 984.52125-84.13  986.74125-83.86Q 988.96125-83.59  991.23125-82.74Q 993.50125-81.88  995.63125-80.25Q 997.75125-78.61  999.39125-75.88Q 1001.02125-73.14  1002.03125-69.14Q 1003.03125-65.14  1003.03125-59.57L 1003.03125-59.57L 1003.03125-24.32Q 1003.03125-18.85  1002.03125-14.87Q 1001.02125-10.89  999.36125-8.11Q 997.70125-5.32  995.56125-3.59Q 993.41125-1.86  991.16125-0.9Q 988.91125 0.05  986.69125 0.39Q 984.47125 0.73  982.71125 0.73L 982.71125 0.73Q 980.76125 0.73  978.47125 0.39Q 976.17125 0.05  973.88125-0.9Q 971.58125-1.86  969.46125-3.56Q 967.33125-5.27  965.72125-8.06Q 964.11125-10.84  963.13125-14.84Q 962.16125-18.85  962.16125-24.32L 962.16125-24.32ZM 975.10125-64.16L 975.10125-18.99Q 975.10125-13.82  976.98125-11.47Q 978.86125-9.13  982.71125-9.13L 982.71125-9.13Q 986.47125-9.13  988.33125-11.47Q 990.18125-13.82  990.18125-18.99L 990.18125-18.99L 990.18125-64.16Q 990.18125-69.63  988.33125-72.12Q 986.47125-74.61  982.71125-74.61L 982.71125-74.61Q 978.86125-74.61  976.98125-72.12Q 975.10125-69.63  975.10125-64.16L 975.10125-64.16ZM 1015.574296875 0L 1015.574296875-9.52L 1025.244296875-9.52L 1025.244296875-66.41L 1014.894296875-57.28L 1009.424296875-63.67L 1028.364296875-83.4L 1037.794296875-83.4L 1037.744296875-83.3L 1037.794296875-83.35L 1037.794296875-9.52L 1047.414296875-9.52L 1047.414296875 0L 1015.574296875 0ZM 1056.101640625 0L 1056.101640625-9.52L 1065.771640625-9.52L 1065.771640625-66.41L 1055.421640625-57.28L 1049.951640625-63.67L 1068.891640625-83.4L 1078.321640625-83.4L 1078.271640625-83.3L 1078.321640625-83.35L 1078.321640625-9.52L 1087.941640625-9.52L 1087.941640625 0L 1056.101640625 0ZM 1094.338984375-24.32L 1094.338984375-59.57Q 1094.338984375-65.04  1095.338984375-69.02Q 1096.338984375-73  1097.968984375-75.71Q 1099.608984375-78.42  1101.758984375-80.08Q 1103.908984375-81.74  1106.178984375-82.64Q 1108.448984375-83.54  1110.718984375-83.84Q 1112.988984375-84.13  1114.888984375-84.13L 1114.888984375-84.13Q 1116.698984375-84.13  1118.918984375-83.86Q 1121.138984375-83.59  1123.408984375-82.74Q 1125.678984375-81.88  1127.808984375-80.25Q 1129.928984375-78.61  1131.568984375-75.88Q 1133.198984375-73.14  1134.208984375-69.14Q 1135.208984375-65.14  1135.208984375-59.57L 1135.208984375-59.57L 1135.208984375-24.32Q 1135.208984375-18.85  1134.208984375-14.87Q 1133.198984375-10.89  1131.538984375-8.11Q 1129.878984375-5.32  1127.738984375-3.59Q 1125.588984375-1.86  1123.338984375-0.9Q 1121.088984375 0.05  1118.868984375 0.39Q 1116.648984375 0.73  1114.888984375 0.73L 1114.888984375 0.73Q 1112.938984375 0.73  1110.648984375 0.39Q 1108.348984375 0.05  1106.058984375-0.9Q 1103.758984375-1.86  1101.638984375-3.56Q 1099.508984375-5.27  1097.898984375-8.06Q 1096.288984375-10.84  1095.308984375-14.84Q 1094.338984375-18.85  1094.338984375-24.32L 1094.338984375-24.32ZM 1107.278984375-64.16L 1107.278984375-18.99Q 1107.278984375-13.82  1109.158984375-11.47Q 1111.038984375-9.13  1114.888984375-9.13L 1114.888984375-9.13Q 1118.648984375-9.13  1120.508984375-11.47Q 1122.358984375-13.82  1122.358984375-18.99L 1122.358984375-18.99L 1122.358984375-64.16Q 1122.358984375-69.63  1120.508984375-72.12Q 1118.648984375-74.61  1114.888984375-74.61L 1114.888984375-74.61Q 1111.038984375-74.61  1109.158984375-72.12Q 1107.278984375-69.63  1107.278984375-64.16L 1107.278984375-64.16ZM 1147.75203125 0L 1147.75203125-9.52L 1157.42203125-9.52L 1157.42203125-66.41L 1147.07203125-57.28L 1141.60203125-63.67L 1160.54203125-83.4L 1169.97203125-83.4L 1169.92203125-83.3L 1169.97203125-83.35L 1169.97203125-9.52L 1179.59203125-9.52L 1179.59203125 0L 1147.75203125 0ZM 1188.279375 0L 1188.279375-9.52L 1197.949375-9.52L 1197.949375-66.41L 1187.599375-57.28L 1182.129375-63.67L 1201.069375-83.4L 1210.499375-83.4L 1210.449375-83.3L 1210.499375-83.35L 1210.499375-9.52L 1220.119375-9.52L 1220.119375 0L 1188.279375 0ZM 1226.51671875-24.32L 1226.51671875-59.57Q 1226.51671875-65.04  1227.51671875-69.02Q 1228.51671875-73  1230.14671875-75.71Q 1231.78671875-78.42  1233.93671875-80.08Q 1236.08671875-81.74  1238.35671875-82.64Q 1240.62671875-83.54  1242.89671875-83.84Q 1245.16671875-84.13  1247.06671875-84.13L 1247.06671875-84.13Q 1248.87671875-84.13  1251.09671875-83.86Q 1253.31671875-83.59  1255.58671875-82.74Q 1257.85671875-81.88  1259.98671875-80.25Q 1262.10671875-78.61  1263.74671875-75.88Q 1265.37671875-73.14  1266.38671875-69.14Q 1267.38671875-65.14  1267.38671875-59.57L 1267.38671875-59.57L 1267.38671875-24.32Q 1267.38671875-18.85  1266.38671875-14.87Q 1265.37671875-10.89  1263.71671875-8.11Q 1262.05671875-5.32  1259.91671875-3.59Q 1257.76671875-1.86  1255.51671875-0.9Q 1253.26671875 0.05  1251.04671875 0.39Q 1248.82671875 0.73  1247.06671875 0.73L 1247.06671875 0.73Q 1245.11671875 0.73  1242.82671875 0.39Q 1240.52671875 0.05  1238.23671875-0.9Q 1235.93671875-1.86  1233.81671875-3.56Q 1231.68671875-5.27  1230.07671875-8.06Q 1228.46671875-10.84  1227.48671875-14.84Q 1226.51671875-18.85  1226.51671875-24.32L 1226.51671875-24.32ZM 1239.45671875-64.16L 1239.45671875-18.99Q 1239.45671875-13.82  1241.33671875-11.47Q 1243.21671875-9.13  1247.06671875-9.13L 1247.06671875-9.13Q 1250.82671875-9.13  1252.68671875-11.47Q 1254.53671875-13.82  1254.53671875-18.99L 1254.53671875-18.99L 1254.53671875-64.16Q 1254.53671875-69.63  1252.68671875-72.12Q 1250.82671875-74.61  1247.06671875-74.61L 1247.06671875-74.61Q 1243.21671875-74.61  1241.33671875-72.12Q 1239.45671875-69.63  1239.45671875-64.16L 1239.45671875-64.16ZM 1277.639765625-24.32L 1277.639765625-59.57Q 1277.639765625-65.04  1278.639765625-69.02Q 1279.639765625-73  1281.269765625-75.71Q 1282.909765625-78.42  1285.059765625-80.08Q 1287.209765625-81.74  1289.479765625-82.64Q 1291.749765625-83.54  1294.019765625-83.84Q 1296.289765625-84.13  1298.189765625-84.13L 1298.189765625-84.13Q 1299.999765625-84.13  1302.219765625-83.86Q 1304.439765625-83.59  1306.709765625-82.74Q 1308.979765625-81.88  1311.109765625-80.25Q 1313.229765625-78.61  1314.869765625-75.88Q 1316.499765625-73.14  1317.509765625-69.14Q 1318.509765625-65.14  1318.509765625-59.57L 1318.509765625-59.57L 1318.509765625-24.32Q 1318.509765625-18.85  1317.509765625-14.87Q 1316.499765625-10.89  1314.839765625-8.11Q 1313.179765625-5.32  1311.039765625-3.59Q 1308.889765625-1.86  1306.639765625-0.9Q 1304.389765625 0.05  1302.169765625 0.39Q 1299.949765625 0.73  1298.189765625 0.73L 1298.189765625 0.73Q 1296.239765625 0.73  1293.949765625 0.39Q 1291.649765625 0.05  1289.359765625-0.9Q 1287.059765625-1.86  1284.939765625-3.56Q 1282.809765625-5.27  1281.199765625-8.06Q 1279.589765625-10.84  1278.609765625-14.84Q 1277.639765625-18.85  1277.639765625-24.32L 1277.639765625-24.32ZM 1290.579765625-64.16L 1290.579765625-18.99Q 1290.579765625-13.82  1292.459765625-11.47Q 1294.339765625-9.13  1298.189765625-9.13L 1298.189765625-9.13Q 1301.949765625-9.13  1303.809765625-11.47Q 1305.659765625-13.82  1305.659765625-18.99L 1305.659765625-18.99L 1305.659765625-64.16Q 1305.659765625-69.63  1303.809765625-72.12Q 1301.949765625-74.61  1298.189765625-74.61L 1298.189765625-74.61Q 1294.339765625-74.61  1292.459765625-72.12Q 1290.579765625-69.63  1290.579765625-64.16L 1290.579765625-64.16ZM 1328.7628125-24.32L 1328.7628125-59.57Q 1328.7628125-65.04  1329.7628125-69.02Q 1330.7628125-73  1332.3928125-75.71Q 1334.0328125-78.42  1336.1828125-80.08Q 1338.3328125-81.74  1340.6028125-82.64Q 1342.8728125-83.54  1345.1428125-83.84Q 1347.4128125-84.13  1349.3128125-84.13L 1349.3128125-84.13Q 1351.1228125-84.13  1353.3428125-83.86Q 1355.5628125-83.59  1357.8328125-82.74Q 1360.1028125-81.88  1362.2328125-80.25Q 1364.3528125-78.61  1365.9928125-75.88Q 1367.6228125-73.14  1368.6328125-69.14Q 1369.6328125-65.14  1369.6328125-59.57L 1369.6328125-59.57L 1369.6328125-24.32Q 1369.6328125-18.85  1368.6328125-14.87Q 1367.6228125-10.89  1365.9628125-8.11Q 1364.3028125-5.32  1362.1628125-3.59Q 1360.0128125-1.86  1357.7628125-0.9Q 1355.5128125 0.05  1353.2928125 0.39Q 1351.0728125 0.73  1349.3128125 0.73L 1349.3128125 0.73Q 1347.3628125 0.73  1345.0728125 0.39Q 1342.7728125 0.05  1340.4828125-0.9Q 1338.1828125-1.86  1336.0628125-3.56Q 1333.9328125-5.27  1332.3228125-8.06Q 1330.7128125-10.84  1329.7328125-14.84Q 1328.7628125-18.85  1328.7628125-24.32L 1328.7628125-24.32ZM 1341.7028125-64.16L 1341.7028125-18.99Q 1341.7028125-13.82  1343.5828125-11.47Q 1345.4628125-9.13  1349.3128125-9.13L 1349.3128125-9.13Q 1353.0728125-9.13  1354.9328125-11.47Q 1356.7828125-13.82  1356.7828125-18.99L 1356.7828125-18.99L 1356.7828125-64.16Q 1356.7828125-69.63  1354.9328125-72.12Q 1353.0728125-74.61  1349.3128125-74.61L 1349.3128125-74.61Q 1345.4628125-74.61  1343.5828125-72.12Q 1341.7028125-69.63  1341.7028125-64.16L 1341.7028125-64.16ZM 1379.885859375-24.32L 1379.885859375-59.57Q 1379.885859375-65.04  1380.885859375-69.02Q 1381.885859375-73  1383.515859375-75.71Q 1385.155859375-78.42  1387.305859375-80.08Q 1389.455859375-81.74  1391.725859375-82.64Q 1393.995859375-83.54  1396.265859375-83.84Q 1398.535859375-84.13  1400.435859375-84.13L 1400.435859375-84.13Q 1402.245859375-84.13  1404.465859375-83.86Q 1406.685859375-83.59  1408.955859375-82.74Q 1411.225859375-81.88  1413.355859375-80.25Q 1415.475859375-78.61  1417.115859375-75.88Q 1418.745859375-73.14  1419.755859375-69.14Q 1420.755859375-65.14  1420.755859375-59.57L 1420.755859375-59.57L 1420.755859375-24.32Q 1420.755859375-18.85  1419.755859375-14.87Q 1418.745859375-10.89  1417.085859375-8.11Q 1415.425859375-5.32  1413.285859375-3.59Q 1411.135859375-1.86  1408.885859375-0.9Q 1406.635859375 0.05  1404.415859375 0.39Q 1402.195859375 0.73  1400.435859375 0.73L 1400.435859375 0.73Q 1398.485859375 0.73  1396.195859375 0.39Q 1393.895859375 0.05  1391.605859375-0.9Q 1389.305859375-1.86  1387.185859375-3.56Q 1385.055859375-5.27  1383.445859375-8.06Q 1381.835859375-10.84  1380.855859375-14.84Q 1379.885859375-18.85  1379.885859375-24.32L 1379.885859375-24.32ZM 1392.825859375-64.16L 1392.825859375-18.99Q 1392.825859375-13.82  1394.705859375-11.47Q 1396.585859375-9.13  1400.435859375-9.13L 1400.435859375-9.13Q 1404.195859375-9.13  1406.055859375-11.47Q 1407.905859375-13.82  1407.905859375-18.99L 1407.905859375-18.99L 1407.905859375-64.16Q 1407.905859375-69.63  1406.055859375-72.12Q 1404.195859375-74.61  1400.435859375-74.61L 1400.435859375-74.61Q 1396.585859375-74.61  1394.705859375-72.12Q 1392.825859375-69.63  1392.825859375-64.16L 1392.825859375-64.16ZM 1433.29890625 0L 1433.29890625-9.52L 1442.96890625-9.52L 1442.96890625-66.41L 1432.61890625-57.28L 1427.14890625-63.67L 1446.08890625-83.4L 1455.51890625-83.4L 1455.46890625-83.3L 1455.51890625-83.35L 1455.51890625-9.52L 1465.13890625-9.52L 1465.13890625 0L 1433.29890625 0Z" data-textpath="01001100011101010110101101100001" data-text-anchor="middle" data-font-size="100" data-letterspacing="0" data-side="left" data-offset="0.5" data-dx="0" data-dy="0" data-xmlspace="preserve" data-href="" data-font="Fjalla One" data-font-src="/Content/clientfonts/fjallaone.woff" data-font-scale="contain" transform="translate(0,0)" data-x="0" data-y="0" fill="url('#linearGradientSkl2eqa3j1q')"></path>
        </g>
      </svg>
    </g>
  </g>
</svg>